<svg xmlns="http://www.w3.org/2000/svg" viewBox="0 0 168.9 359.55"><defs><style>.cls-1{fill:#ffffffaa;}</style></defs><title>WK2_InClass_Saving_Asset 2</title><g id="Layer_2" data-name="Layer 2"><g id="Layer_1-2" data-name="Layer 1"><path class="cls-1" d="M118.15,21.45,35.05,49a11.05,11.05,0,0,1-13.9-7h0a11.05,11.05,0,0,1,7-13.9L111.25.55a11.05,11.05,0,0,1,13.9,7h0A10.89,10.89,0,0,1,118.15,21.45Z"/><path class="cls-1" d="M161.35,50.35,14.45,99A11.05,11.05,0,0,1,.55,92h0a11.05,11.05,0,0,1,7-13.9l146.9-48.6a11.05,11.05,0,0,1,13.9,7h0A11.09,11.09,0,0,1,161.35,50.35Z"/><path class="cls-1" d="M64.75,213.85c.5,17.7-.2,27.6-7.8,36.4-7,8.1-18.2-1.3-13.4-10.3,3.4-6.4,3.3-8.1,5.8-14.4,2.9-7.3,1.1-11.8-3.1-22.1s-22.8-10.9-22.8-10.9a6.73,6.73,0,0,1-5.1-8h0c-.2-5,5.1-6.2,5.1-6.2s18-4.2,31.4,5.7C66.55,192.85,64.75,213.85,64.75,213.85Z"/><path class="cls-1" d="M161.35,93.55l-146.9,48.6a11.05,11.05,0,0,1-13.9-7h0a11.05,11.05,0,0,1,7-13.9l146.9-48.6a11.05,11.05,0,0,1,13.9,7h0A11.09,11.09,0,0,1,161.35,93.55Z"/><path class="cls-1" d="M161.35,136.65l-146.9,48.6a11.05,11.05,0,0,1-13.9-7h0a11.05,11.05,0,0,1,7-13.9l146.9-48.6a11.05,11.05,0,0,1,13.9,7h0A11.09,11.09,0,0,1,161.35,136.65Z"/><path class="cls-1" d="M107.05,211.85c-.5,17.7.2,27.6,7.8,36.4,5.7,6.6,17.8-2.1,13.4-10.3-3.4-6.4-3.3-8.1-5.8-14.4-2.9-7.3-1.1-11.8,3.1-22.1s22.8-10.9,22.8-10.9a6.73,6.73,0,0,0,5.1-8h0c.2-5-5.1-6.2-5.1-6.2s-18-4.2-31.4,5.7C105.25,190.85,107.05,211.85,107.05,211.85Z"/><polygon class="cls-1" points="11.05 290.55 17.65 306.35 151.15 306.35 157.75 290.55 11.05 290.55"/><polygon class="cls-1" points="20.45 314.05 26.25 329.85 142.55 329.85 148.35 314.05 20.45 314.05"/><rect class="cls-1" x="5.55" y="264.45" width="157.8" height="18.3"/><path class="cls-1" d="M44.25,359.55h84c15,0,15-20.3,15-20.3H29.65C29.65,339.35,29.65,359.55,44.25,359.55Z"/></g></g></svg>