<svg xmlns="http://www.w3.org/2000/svg" viewBox="0 0 249.8 460.2"><defs><style>.cls-1{fill:#fff;}</style></defs><title>loadingAsset 1</title><g id="Layer_2" data-name="Layer 2"><g id="Layer_1-2" data-name="Layer 1"><path class="cls-1" d="M226.8,103.1h0a16.47,16.47,0,0,1-16.4-16.4V16.4A16.47,16.47,0,0,1,226.8,0h0a16.47,16.47,0,0,1,16.4,16.4V86.7A16.35,16.35,0,0,1,226.8,103.1Z"/><path class="cls-1" d="M163.7,121.8h0a16.46,16.46,0,0,1-22.4-6L106.1,54.9a16.46,16.46,0,0,1,6-22.4h0a16.46,16.46,0,0,1,22.4,6l35.1,60.9A16.22,16.22,0,0,1,163.7,121.8Z"/><path class="cls-1" d="M118.5,169.5h0a16.46,16.46,0,0,1-22.4,6L35.2,140.4a16.46,16.46,0,0,1-6-22.4h0a16.46,16.46,0,0,1,22.4-6l60.9,35.1A16.42,16.42,0,0,1,118.5,169.5Z"/><path class="cls-1" d="M103.1,233.4h0a16.47,16.47,0,0,1-16.4,16.4H16.4A16.47,16.47,0,0,1,0,233.4H0A16.47,16.47,0,0,1,16.4,217H86.7A16.35,16.35,0,0,1,103.1,233.4Z"/><path class="cls-1" d="M121.8,296.5h0a16.46,16.46,0,0,1-6,22.4L54.9,354a16.46,16.46,0,0,1-22.4-6h0a16.46,16.46,0,0,1,6-22.4l60.9-35.1A16.33,16.33,0,0,1,121.8,296.5Z"/><path class="cls-1" d="M169.5,341.7h0a16.46,16.46,0,0,1,6,22.4L140.4,425a16.46,16.46,0,0,1-22.4,6h0a16.46,16.46,0,0,1-6-22.4l35.2-60.9A16.28,16.28,0,0,1,169.5,341.7Z"/><path class="cls-1" d="M233.4,357.1h0a16.47,16.47,0,0,1,16.4,16.4v70.3a16.47,16.47,0,0,1-16.4,16.4h0A16.47,16.47,0,0,1,217,443.8V373.5A16.35,16.35,0,0,1,233.4,357.1Z"/></g></g></svg>