<?xml version="1.0" encoding="utf-8"?>
<!-- Generator: Adobe Illustrator 22.0.0, SVG Export Plug-In . SVG Version: 6.00 Build 0)  -->
<svg version="1.1" id="Layer_1" xmlns="http://www.w3.org/2000/svg" xmlns:xlink="http://www.w3.org/1999/xlink" x="0px" y="0px"
	 viewBox="0 0 1054 566.4" style="enable-background:new 0 0 1054 566.4;" xml:space="preserve">
<style type="text/css">
	.st0{fill:#F26739;}
	.st1{fill:#99CA3D;}
	.st2{fill:#FDBA2F;}
	.st3{fill:none;}
	.st4{fill:#FFFFFF;}
	.st5{font-family:'ArialMT';}
	.st6{font-size:34px;}
	.st7{fill:none;stroke:#FFFFFF;stroke-width:0.25;}
	.st8{font-size:12px;}
	.st9{font-size:22.6175px;}
	.st10{fill:none;stroke:#6F6F6F;stroke-width:3;stroke-linecap:round;stroke-miterlimit:10;}
	.st11{fill:none;stroke:#6F6F6F;stroke-width:2.2036;stroke-linecap:round;stroke-miterlimit:10;}
	.st12{fill:#6F6F6F;}
	.st13{fill:#807F80;}
</style>
<g id="Layer_1_1_">
	<g>
		<path class="st0" d="M591.8,439.8c7.1,3.3,13.1,5.7,20.6,8c83.6,25.8,172.3-21,198.1-104.6l-151.4-46.7l-151.3-46.8
			C484.3,325.7,519.8,406,591.8,439.8z"/>
		<path class="st1" d="M507.8,249.7l151.4,46.7l151.4,46.7c14.1-45.6,7.6-92.6-18.3-132.6c-21.5-33.4-48.4-53.7-86.4-65.5
			C622.3,119.3,533.6,166.1,507.8,249.7z"/>
		<path class="st2" d="M659.2,296.5l-136.6,80.8c0,0,53.2,101.7,176.6,72.4L659.2,296.5z"/>
		<rect x="520" y="288.1" class="st3" width="71.7" height="31.3"/>
		<text transform="matrix(1 0 0 1 519.9684 312.1927)" class="st4 st5 st6">P.M.</text>
		<text transform="matrix(1 0 0 1 519.9684 312.1927)" class="st7 st5 st6">P.M.</text>
		<rect x="732.8" y="288.1" class="st3" width="79.6" height="31.3"/>
		<text transform="matrix(1 0 0 1 732.7412 312.1927)" class="st4 st5 st6">A.M.</text>
		<text transform="matrix(1 0 0 1 732.7412 312.1927)" class="st7 st5 st6">A.M.</text>
	</g>
	<path class="st2" d="M158.8,439.3c7.1,3.3,13.1,5.7,20.6,8c83.6,25.8,172.3-21,198.1-104.6L226.1,296L74.8,249.2
		C51.3,325.2,86.8,405.5,158.8,439.3z"/>
	<path class="st1" d="M74.8,249.2l151.4,46.7l151.4,46.7c14.1-45.6,7.6-92.6-18.3-132.6c-21.5-33.4-48.4-53.7-86.4-65.5
		C189.3,118.8,100.6,165.6,74.8,249.2z"/>
	<path class="st0" d="M226.2,296L89.6,376.8c0,0,50.8,95.6,176.6,72.4L226.2,296z"/>
	<rect x="87" y="287.6" class="st3" width="71.7" height="31.3"/>
	<text transform="matrix(1 0 0 1 87.0075 311.7095)" class="st4 st5 st6">P.M.</text>
	<text transform="matrix(1 0 0 1 87.0075 311.7095)" class="st7 st5 st6">P.M.</text>
	<rect x="299.8" y="287.6" class="st3" width="79.6" height="31.3"/>
	<text transform="matrix(1 0 0 1 299.7803 311.7095)" class="st4 st5 st6">A.M.</text>
	<text transform="matrix(1 0 0 1 299.7803 311.7095)" class="st7 st5 st6">A.M.</text>
	<path id="SVGID_x5F_1_x5F__3_" class="st3" d="M226.1,466.4c-94.2,0-170.5-76.4-170.5-170.6"/>
	<path id="SVGID_x5F_1_x5F__2_" class="st3" d="M226.2,125.2c94.2,0,170.5,76.4,170.5,170.6"/>
	<text transform="matrix(1 0 0 1 225.353 133.7202)" class="st5 st8">         </text>
	<text class="st5 st8"> </text>
	<text transform="matrix(1 0 0 1 395.4646 275.089)" class="st5 st8"> </text>
	<text transform="matrix(1 0 0 1 395.8531 278.4009)" class="st5 st9"> </text>
	<text transform="matrix(1 0 0 1 396.3712 284.6641)" class="st5 st9"> </text>
	<text class="st5 st8"> </text>
	<text class="st5 st8"> </text>
	<text transform="matrix(1 0 0 1 829.1627 275.0863)" class="st5 st8"> </text>
	<text class="st5 st8"> </text>
	<circle class="st10" cx="463" cy="523" r="9.9"/>
	<line class="st10" x1="463" y1="513.1" x2="463" y2="501.2"/>
	<line class="st10" x1="463" y1="505.9" x2="467.4" y2="502.2"/>
	<line class="st10" x1="463" y1="505.9" x2="458.6" y2="502.2"/>
	<line class="st10" x1="456" y1="516" x2="447.5" y2="507.6"/>
	<line class="st10" x1="450.9" y1="510.9" x2="451.4" y2="505.2"/>
	<line class="st10" x1="450.9" y1="510.9" x2="445.1" y2="511.4"/>
	<line class="st10" x1="453" y1="523" x2="441.2" y2="523"/>
	<line class="st10" x1="445.8" y1="523" x2="442.1" y2="518.6"/>
	<line class="st10" x1="445.8" y1="523" x2="442.1" y2="527.4"/>
	<line class="st10" x1="456" y1="530" x2="447.5" y2="538.5"/>
	<line class="st10" x1="450.9" y1="535.1" x2="445.1" y2="534.6"/>
	<line class="st10" x1="450.9" y1="535.1" x2="451.4" y2="540.9"/>
	<line class="st10" x1="463" y1="533" x2="463" y2="544.8"/>
	<line class="st10" x1="463" y1="540.2" x2="458.6" y2="543.9"/>
	<line class="st10" x1="463" y1="540.2" x2="467.4" y2="543.9"/>
	<line class="st10" x1="470" y1="530" x2="478.4" y2="538.5"/>
	<line class="st10" x1="475.1" y1="535.1" x2="474.6" y2="540.9"/>
	<line class="st10" x1="475.1" y1="535.1" x2="480.8" y2="534.6"/>
	<line class="st10" x1="472.9" y1="523" x2="484.8" y2="523"/>
	<line class="st10" x1="480.1" y1="523" x2="483.8" y2="527.4"/>
	<line class="st10" x1="480.1" y1="523" x2="483.8" y2="518.6"/>
	<line class="st10" x1="470" y1="516" x2="478.4" y2="507.6"/>
	<line class="st10" x1="475.1" y1="510.9" x2="480.8" y2="511.4"/>
	<line class="st10" x1="475.1" y1="510.9" x2="474.6" y2="505.2"/>
	<circle class="st11" cx="195.4" cy="522.6" r="8.4"/>
	<line class="st11" x1="195.4" y1="511.1" x2="195.4" y2="505.3"/>
	<line class="st11" x1="189.6" y1="512.6" x2="186.8" y2="507.7"/>
	<line class="st11" x1="185.4" y1="516.8" x2="180.4" y2="514"/>
	<line class="st11" x1="183.8" y1="522.6" x2="178.1" y2="522.6"/>
	<line class="st11" x1="185.4" y1="528.4" x2="180.4" y2="531.2"/>
	<line class="st11" x1="189.6" y1="532.6" x2="186.7" y2="537.6"/>
	<line class="st11" x1="195.4" y1="534.1" x2="195.4" y2="539.9"/>
	<line class="st11" x1="201.1" y1="532.6" x2="204" y2="537.6"/>
	<line class="st11" x1="205.4" y1="528.4" x2="210.3" y2="531.2"/>
	<line class="st11" x1="206.9" y1="522.6" x2="212.7" y2="522.6"/>
	<line class="st11" x1="205.4" y1="516.8" x2="210.3" y2="514"/>
	<line class="st11" x1="201.2" y1="512.6" x2="204" y2="507.7"/>
	<g>
		<path class="st12" d="M227.7,516.3c0,0.6-0.2,1.2-0.5,1.6s-0.8,0.9-1.4,1.1s-1.3,0.4-2.1,0.4c-1,0-1.8-0.2-2.4-0.6
			c-0.5-0.3-0.8-0.6-1.1-1.1c-0.3-0.4-0.4-0.9-0.4-1.3c0-0.2,0.1-0.5,0.3-0.6c0.2-0.2,0.4-0.3,0.7-0.3c0.2,0,0.4,0.1,0.5,0.2
			s0.3,0.3,0.4,0.6c0.1,0.3,0.3,0.6,0.4,0.8s0.4,0.4,0.6,0.5c0.3,0.1,0.6,0.2,1.1,0.2c0.6,0,1.1-0.1,1.5-0.4c0.4-0.3,0.6-0.6,0.6-1
			c0-0.3-0.1-0.6-0.3-0.8s-0.5-0.4-0.8-0.5s-0.8-0.2-1.3-0.3c-0.7-0.2-1.3-0.4-1.8-0.6c-0.5-0.2-0.9-0.5-1.2-0.9s-0.4-0.9-0.4-1.5
			c0-0.6,0.2-1,0.5-1.5s0.7-0.8,1.3-1s1.2-0.3,2-0.3c0.6,0,1.1,0.1,1.6,0.2c0.4,0.2,0.8,0.4,1.1,0.6c0.3,0.3,0.5,0.5,0.6,0.8
			s0.2,0.5,0.2,0.8c0,0.2-0.1,0.5-0.3,0.7c-0.2,0.2-0.4,0.3-0.6,0.3c-0.2,0-0.4-0.1-0.5-0.2c-0.1-0.1-0.3-0.3-0.4-0.6
			c-0.2-0.4-0.4-0.7-0.7-0.9c-0.3-0.2-0.7-0.3-1.2-0.3s-0.9,0.1-1.3,0.3c-0.3,0.2-0.5,0.5-0.5,0.8c0,0.2,0.1,0.4,0.2,0.5
			c0.1,0.1,0.3,0.3,0.5,0.4s0.4,0.2,0.6,0.2s0.5,0.1,1,0.3c0.6,0.1,1.1,0.3,1.5,0.4s0.8,0.4,1.2,0.6s0.6,0.5,0.8,0.9
			C227.6,515.4,227.7,515.8,227.7,516.3z"/>
		<path class="st12" d="M229.4,515.2v-4.8c0-0.4,0.1-0.7,0.3-0.9s0.4-0.3,0.7-0.3s0.6,0.1,0.7,0.3s0.3,0.5,0.3,0.9v4.9
			c0,0.6,0.1,1,0.2,1.4c0.1,0.4,0.3,0.7,0.7,0.9c0.3,0.2,0.8,0.3,1.3,0.3c0.8,0,1.4-0.2,1.7-0.6c0.3-0.4,0.5-1.1,0.5-1.9v-5
			c0-0.4,0.1-0.7,0.3-0.9c0.2-0.2,0.4-0.3,0.7-0.3s0.6,0.1,0.7,0.3c0.2,0.2,0.3,0.5,0.3,0.9v4.8c0,0.8-0.1,1.4-0.2,2s-0.4,1-0.9,1.4
			c-0.4,0.3-0.8,0.6-1.3,0.7s-1,0.2-1.7,0.2c-0.8,0-1.4-0.1-2-0.2c-0.6-0.2-1-0.4-1.4-0.8c-0.4-0.3-0.6-0.8-0.8-1.3
			C229.5,516.6,229.4,515.9,229.4,515.2z"/>
		<path class="st12" d="M243.4,517.8l-1.6-6.4v6.9c0,0.4-0.1,0.7-0.3,0.9s-0.4,0.3-0.7,0.3s-0.5-0.1-0.7-0.3s-0.3-0.5-0.3-0.9v-7.9
			c0-0.4,0.1-0.7,0.3-0.9c0.2-0.2,0.5-0.2,0.9-0.2h0.6c0.4,0,0.7,0,0.8,0.1s0.3,0.2,0.4,0.4s0.2,0.5,0.3,0.9l1.5,5.5l1.5-5.5
			c0.1-0.4,0.2-0.7,0.3-0.9s0.2-0.3,0.4-0.4s0.4-0.1,0.8-0.1h0.6c0.4,0,0.7,0.1,0.9,0.2c0.2,0.2,0.3,0.4,0.3,0.9v7.9
			c0,0.4-0.1,0.7-0.3,0.9s-0.4,0.3-0.7,0.3s-0.5-0.1-0.7-0.3s-0.3-0.5-0.3-0.9v-6.9l-1.6,6.4c-0.1,0.4-0.2,0.7-0.3,0.9
			s-0.2,0.4-0.4,0.5s-0.4,0.2-0.7,0.2c-0.2,0-0.4-0.1-0.6-0.2c-0.2-0.1-0.3-0.2-0.4-0.4s-0.2-0.3-0.2-0.5
			C243.5,518.2,243.5,518,243.4,517.8z"/>
		<path class="st12" d="M255.1,517.8l-1.6-6.4v6.9c0,0.4-0.1,0.7-0.3,0.9s-0.4,0.3-0.7,0.3s-0.5-0.1-0.7-0.3s-0.3-0.5-0.3-0.9v-7.9
			c0-0.4,0.1-0.7,0.3-0.9c0.2-0.2,0.5-0.2,0.9-0.2h0.6c0.4,0,0.7,0,0.8,0.1s0.3,0.2,0.4,0.4s0.2,0.5,0.3,0.9l1.5,5.5l1.5-5.5
			c0.1-0.4,0.2-0.7,0.3-0.9s0.2-0.3,0.4-0.4s0.4-0.1,0.8-0.1h0.6c0.4,0,0.7,0.1,0.9,0.2c0.2,0.2,0.3,0.4,0.3,0.9v7.9
			c0,0.4-0.1,0.7-0.3,0.9s-0.4,0.3-0.7,0.3c-0.3,0-0.5-0.1-0.7-0.3s-0.3-0.5-0.3-0.9v-6.9l-1.6,6.4c-0.1,0.4-0.2,0.7-0.3,0.9
			c-0.1,0.2-0.2,0.4-0.4,0.5s-0.4,0.2-0.7,0.2c-0.2,0-0.4-0.1-0.6-0.2c-0.2-0.1-0.3-0.2-0.4-0.4s-0.2-0.3-0.2-0.5
			C255.2,518.2,255.1,518,255.1,517.8z"/>
		<path class="st12" d="M269.9,510.9h-4.6v2.5h4.2c0.3,0,0.5,0.1,0.7,0.2c0.2,0.1,0.2,0.3,0.2,0.6s-0.1,0.4-0.2,0.6
			c-0.2,0.1-0.4,0.2-0.7,0.2h-4.2v2.9h4.7c0.3,0,0.6,0.1,0.7,0.2c0.2,0.1,0.2,0.3,0.2,0.6c0,0.2-0.1,0.4-0.2,0.6
			c-0.2,0.1-0.4,0.2-0.7,0.2h-5.5c-0.4,0-0.8-0.1-1-0.3s-0.3-0.5-0.3-1v-7.5c0-0.3,0-0.5,0.1-0.7s0.2-0.3,0.4-0.4
			c0.2-0.1,0.4-0.1,0.7-0.1h5.4c0.3,0,0.6,0.1,0.7,0.2c0.2,0.1,0.2,0.3,0.2,0.6c0,0.2-0.1,0.4-0.2,0.6
			C270.5,510.8,270.3,510.9,269.9,510.9z"/>
		<path class="st12" d="M275.4,515h-0.7v3.2c0,0.4-0.1,0.7-0.3,0.9s-0.4,0.3-0.7,0.3c-0.3,0-0.6-0.1-0.8-0.3s-0.3-0.5-0.3-0.9v-7.7
			c0-0.4,0.1-0.8,0.3-1s0.5-0.3,1-0.3h3.3c0.5,0,0.8,0,1.2,0.1c0.3,0,0.6,0.1,0.9,0.2s0.6,0.3,0.8,0.6s0.4,0.5,0.6,0.9
			c0.1,0.3,0.2,0.7,0.2,1c0,0.7-0.2,1.3-0.6,1.8s-1.1,0.8-1.9,1c0.4,0.2,0.7,0.5,1,0.8s0.6,0.8,0.9,1.2s0.5,0.8,0.6,1.1
			s0.2,0.6,0.2,0.7c0,0.1,0,0.3-0.1,0.4c-0.1,0.1-0.2,0.2-0.3,0.3c-0.1,0.1-0.3,0.1-0.5,0.1s-0.4-0.1-0.6-0.2
			c-0.2-0.1-0.3-0.2-0.4-0.4s-0.3-0.4-0.5-0.7l-0.8-1.4c-0.3-0.5-0.6-0.9-0.8-1.1s-0.5-0.4-0.7-0.5S275.8,515,275.4,515z
			 M276.6,510.8h-1.9v2.8h1.8c0.5,0,0.9,0,1.2-0.1c0.3-0.1,0.6-0.2,0.8-0.4c0.2-0.2,0.3-0.5,0.3-0.8s-0.1-0.5-0.2-0.7
			s-0.3-0.4-0.6-0.5C277.7,510.9,277.3,510.8,276.6,510.8z"/>
		<path class="st13" d="M223.4,534.6l-1.6-6.4v6.9c0,0.4-0.1,0.7-0.3,0.9s-0.4,0.3-0.7,0.3s-0.5-0.1-0.7-0.3s-0.3-0.5-0.3-0.9v-7.9
			c0-0.4,0.1-0.7,0.3-0.9s0.5-0.2,0.9-0.2h0.6c0.4,0,0.7,0,0.8,0.1s0.3,0.2,0.4,0.4s0.2,0.5,0.3,0.9l1.5,5.5l1.5-5.5
			c0.1-0.4,0.2-0.7,0.3-0.9s0.2-0.3,0.4-0.4s0.4-0.1,0.8-0.1h0.6c0.4,0,0.7,0.1,0.9,0.2c0.2,0.2,0.3,0.4,0.3,0.9v7.9
			c0,0.4-0.1,0.7-0.3,0.9s-0.4,0.3-0.7,0.3s-0.5-0.1-0.7-0.3s-0.3-0.5-0.3-0.9v-6.9l-1.6,6.4c-0.1,0.4-0.2,0.7-0.3,0.9
			s-0.2,0.4-0.4,0.5s-0.4,0.2-0.7,0.2c-0.2,0-0.4-0.1-0.6-0.2c-0.2-0.1-0.3-0.2-0.4-0.4s-0.2-0.3-0.2-0.5
			C223.5,535,223.5,534.8,223.4,534.6z"/>
		<path class="st13" d="M236.3,535.2c-0.5,0.4-0.9,0.6-1.3,0.8c-0.4,0.2-0.9,0.3-1.4,0.3s-0.9-0.1-1.3-0.3c-0.4-0.2-0.6-0.4-0.8-0.8
			s-0.3-0.7-0.3-1.1c0-0.5,0.2-0.9,0.5-1.3s0.8-0.6,1.3-0.7c0.1,0,0.4-0.1,0.9-0.2s0.9-0.2,1.2-0.3s0.7-0.2,1.1-0.3
			c0-0.5-0.1-0.9-0.3-1.1c-0.2-0.2-0.5-0.3-1.1-0.3c-0.5,0-0.8,0.1-1.1,0.2s-0.4,0.3-0.6,0.6s-0.3,0.4-0.4,0.5
			c-0.1,0.1-0.2,0.1-0.5,0.1c-0.2,0-0.4-0.1-0.5-0.2c-0.2-0.1-0.2-0.3-0.2-0.5c0-0.3,0.1-0.6,0.3-1s0.6-0.6,1.1-0.8s1.1-0.3,1.8-0.3
			c0.8,0,1.5,0.1,1.9,0.3c0.5,0.2,0.8,0.5,1,0.9s0.3,1,0.3,1.7c0,0.4,0,0.8,0,1.1s0,0.6,0,1s0.1,0.7,0.2,1.1
			c0.1,0.4,0.2,0.6,0.2,0.7c0,0.2-0.1,0.4-0.3,0.5c-0.2,0.2-0.4,0.2-0.6,0.2c-0.2,0-0.4-0.1-0.6-0.3
			C236.7,535.9,236.5,535.6,236.3,535.2z M236.2,532.5c-0.3,0.1-0.7,0.2-1.2,0.3s-0.9,0.2-1.1,0.2c-0.2,0.1-0.4,0.2-0.6,0.3
			c-0.2,0.2-0.3,0.4-0.3,0.6c0,0.3,0.1,0.5,0.3,0.7s0.5,0.3,0.8,0.3c0.4,0,0.7-0.1,1-0.2c0.3-0.2,0.5-0.4,0.7-0.6
			c0.2-0.3,0.3-0.7,0.3-1.4v-0.2L236.2,532.5L236.2,532.5z"/>
		<path class="st13" d="M241.4,536.5l0.2-0.4l-2.3-5.8c-0.1-0.3-0.2-0.6-0.2-0.7c0-0.2,0-0.3,0.1-0.4s0.2-0.2,0.3-0.3
			s0.3-0.1,0.4-0.1c0.3,0,0.5,0.1,0.6,0.3s0.3,0.4,0.4,0.7l1.6,4.6l1.5-4.3c0.1-0.3,0.2-0.6,0.3-0.8s0.2-0.3,0.3-0.4
			s0.3-0.1,0.5-0.1c0.1,0,0.3,0,0.4,0.1c0.1,0.1,0.2,0.2,0.3,0.3s0.1,0.3,0.1,0.4c0,0.1,0,0.2-0.1,0.4s-0.1,0.3-0.2,0.5l-2.4,6.4
			c-0.2,0.6-0.4,1-0.6,1.3s-0.5,0.6-0.8,0.7c-0.3,0.2-0.8,0.3-1.3,0.3s-1-0.1-1.2-0.2s-0.4-0.3-0.4-0.6c0-0.2,0.1-0.4,0.2-0.5
			c0.1-0.1,0.3-0.2,0.6-0.2c0.1,0,0.2,0,0.3,0s0.2,0,0.3,0c0.2,0,0.4,0,0.5-0.1s0.2-0.2,0.3-0.3
			C241.2,537.1,241.3,536.8,241.4,536.5z"/>
		<path class="st13" d="M253.8,535.2V529c-1.2,0.9-1.9,1.3-2.3,1.3c-0.2,0-0.4-0.1-0.5-0.2c-0.1-0.2-0.2-0.3-0.2-0.5
			s0.1-0.4,0.2-0.5s0.4-0.3,0.8-0.4c0.6-0.3,1-0.5,1.3-0.8s0.6-0.6,0.9-1s0.4-0.6,0.5-0.7s0.2-0.1,0.4-0.1s0.4,0.1,0.6,0.3
			s0.2,0.4,0.2,0.8v7.8c0,0.9-0.3,1.4-0.9,1.4c-0.3,0-0.5-0.1-0.7-0.3S253.8,535.6,253.8,535.2z"/>
		<path class="st13" d="M265.1,533.3h-2.2c-0.3,0-0.6-0.1-0.7-0.2c-0.2-0.2-0.3-0.4-0.3-0.6c0-0.2,0.1-0.4,0.2-0.6
			c0.2-0.2,0.4-0.2,0.8-0.2h2.2c0.3,0,0.6,0.1,0.8,0.2c0.2,0.2,0.2,0.4,0.2,0.6c0,0.2-0.1,0.4-0.2,0.6
			C265.7,533.2,265.4,533.3,265.1,533.3z"/>
		<path class="st13" d="M275.3,525.9c1,0,1.9,0.2,2.7,0.6c0.7,0.4,1.3,1,1.7,1.8c0.4,0.8,0.6,1.7,0.6,2.7c0,0.8-0.1,1.5-0.3,2.1
			s-0.5,1.2-0.9,1.6s-0.9,0.8-1.5,1.1s-1.3,0.4-2.1,0.4c-0.8,0-1.5-0.1-2.1-0.4c-0.6-0.3-1.1-0.6-1.6-1.1s-0.7-1-0.9-1.7
			s-0.3-1.3-0.3-2.1s0.1-1.5,0.3-2.1s0.5-1.2,1-1.6s0.9-0.8,1.5-1C273.9,526.1,274.6,525.9,275.3,525.9z M278.2,531.1
			c0-0.7-0.1-1.4-0.4-1.9s-0.6-0.9-1-1.2s-0.9-0.4-1.5-0.4c-0.4,0-0.8,0.1-1.1,0.2c-0.3,0.2-0.6,0.4-0.9,0.7s-0.4,0.7-0.6,1.1
			c-0.1,0.5-0.2,1-0.2,1.5c0,0.6,0.1,1.1,0.2,1.5s0.3,0.8,0.6,1.1c0.3,0.3,0.6,0.5,0.9,0.7s0.7,0.2,1.1,0.2c0.5,0,1-0.1,1.4-0.4
			s0.8-0.7,1-1.2S278.2,531.9,278.2,531.1z"/>
		<path class="st13" d="M288.6,534c0,0.2-0.1,0.5-0.2,0.7s-0.4,0.5-0.6,0.8c-0.3,0.2-0.6,0.4-1.1,0.6s-0.9,0.2-1.5,0.2
			c-1.2,0-2.1-0.3-2.7-1s-1-1.6-1-2.7c0-0.8,0.1-1.4,0.4-2s0.7-1,1.3-1.4c0.6-0.3,1.2-0.5,2-0.5c0.5,0,0.9,0.1,1.3,0.2
			s0.7,0.3,1,0.5s0.5,0.5,0.6,0.7c0.1,0.3,0.2,0.5,0.2,0.7s-0.1,0.4-0.2,0.6s-0.4,0.2-0.6,0.2s-0.3,0-0.4-0.1s-0.2-0.2-0.3-0.4
			c-0.2-0.3-0.5-0.6-0.7-0.8s-0.6-0.3-0.9-0.3c-0.6,0-1,0.2-1.3,0.6c-0.3,0.4-0.5,1-0.5,1.8c0,0.4,0,0.7,0.1,1s0.2,0.5,0.4,0.8
			c0.2,0.2,0.4,0.4,0.6,0.5s0.5,0.2,0.8,0.2c0.4,0,0.7-0.1,1-0.3s0.5-0.4,0.7-0.8c0.1-0.2,0.2-0.4,0.4-0.5s0.3-0.2,0.5-0.2
			s0.4,0.1,0.6,0.3S288.6,533.8,288.6,534z"/>
		<path class="st13" d="M290.3,528.9h0.2v-1.1c0-0.3,0-0.5,0-0.7s0.1-0.3,0.1-0.4c0.1-0.1,0.2-0.2,0.3-0.3c0.1-0.1,0.3-0.1,0.5-0.1
			s0.5,0.1,0.6,0.3c0.1,0.1,0.2,0.3,0.2,0.4c0,0.2,0.1,0.4,0.1,0.7v1.3h0.7c0.3,0,0.5,0.1,0.6,0.2c0.1,0.1,0.2,0.3,0.2,0.5
			c0,0.3-0.1,0.4-0.3,0.5s-0.5,0.2-0.9,0.2h-0.3v3.4c0,0.3,0,0.5,0,0.7s0.1,0.3,0.2,0.4c0.1,0.1,0.2,0.1,0.4,0.1
			c0.1,0,0.3,0,0.4-0.1c0.2,0,0.3-0.1,0.4-0.1c0.2,0,0.3,0.1,0.4,0.2c0.1,0.1,0.2,0.3,0.2,0.4c0,0.3-0.2,0.5-0.5,0.7
			s-0.8,0.2-1.4,0.2s-1-0.1-1.3-0.3s-0.5-0.5-0.6-0.8s-0.1-0.8-0.1-1.4v-3.6h-0.2c-0.3,0-0.5-0.1-0.6-0.2s-0.2-0.3-0.2-0.5
			s0.1-0.4,0.2-0.5C289.8,528.9,290,528.9,290.3,528.9z"/>
		<path class="st13" d="M301.5,530.1c0.4,0,0.8-0.1,1.1-0.4s0.5-0.6,0.5-1.1c0-0.4-0.1-0.7-0.4-0.9c-0.2-0.3-0.6-0.4-1-0.4
			c-0.3,0-0.5,0-0.7,0.1s-0.3,0.2-0.4,0.3s-0.2,0.3-0.3,0.5s-0.2,0.4-0.3,0.6c0,0.1-0.1,0.2-0.2,0.2s-0.3,0.1-0.4,0.1
			c-0.2,0-0.3-0.1-0.5-0.2c-0.2-0.1-0.2-0.3-0.2-0.6c0-0.2,0.1-0.5,0.2-0.7c0.1-0.3,0.4-0.5,0.6-0.7s0.6-0.4,1-0.6
			c0.4-0.1,0.9-0.2,1.4-0.2c0.4,0,0.8,0.1,1.2,0.2c0.4,0.1,0.7,0.3,1,0.5s0.5,0.5,0.6,0.8s0.2,0.6,0.2,1c0,0.5-0.1,0.8-0.3,1.2
			c-0.2,0.3-0.5,0.6-0.9,1c0.4,0.2,0.7,0.4,0.9,0.7s0.4,0.5,0.6,0.8c0.1,0.3,0.2,0.6,0.2,1s-0.1,0.8-0.2,1.2s-0.4,0.7-0.7,1
			c-0.3,0.3-0.7,0.5-1.2,0.7c-0.4,0.2-0.9,0.3-1.5,0.3c-0.5,0-1-0.1-1.5-0.3s-0.8-0.4-1.1-0.7c-0.3-0.3-0.5-0.6-0.6-0.9
			s-0.2-0.6-0.2-0.8c0-0.3,0.1-0.5,0.3-0.6c0.2-0.2,0.4-0.2,0.6-0.2c0.1,0,0.3,0,0.4,0.1s0.2,0.2,0.2,0.3c0.2,0.6,0.5,1.1,0.8,1.4
			c0.3,0.3,0.7,0.5,1.1,0.5c0.3,0,0.6-0.1,0.8-0.2c0.3-0.1,0.5-0.3,0.6-0.6s0.3-0.6,0.3-1c0-0.5-0.1-1-0.4-1.3s-0.7-0.5-1.2-0.5
			c-0.1,0-0.2,0-0.4,0s-0.3,0-0.4,0c-0.3,0-0.4-0.1-0.6-0.2c-0.1-0.1-0.2-0.3-0.2-0.5s0.1-0.4,0.2-0.5c0.2-0.1,0.4-0.2,0.7-0.2h0.3
			V530.1z"/>
		<path class="st13" d="M310,535.2V529c-1.2,0.9-1.9,1.3-2.3,1.3c-0.2,0-0.4-0.1-0.5-0.2c-0.1-0.2-0.2-0.3-0.2-0.5s0.1-0.4,0.2-0.5
			s0.4-0.3,0.8-0.4c0.6-0.3,1-0.5,1.3-0.8s0.6-0.6,0.9-1s0.4-0.6,0.5-0.7s0.2-0.1,0.4-0.1c0.2,0,0.4,0.1,0.6,0.3s0.2,0.4,0.2,0.8
			v7.8c0,0.9-0.3,1.4-0.9,1.4c-0.3,0-0.5-0.1-0.7-0.3S310,535.6,310,535.2z"/>
	</g>
	<g>
		<path class="st12" d="M503.3,517.8l-1.6-6l-1.6,6c-0.1,0.5-0.2,0.8-0.3,1c-0.1,0.2-0.2,0.4-0.4,0.5c-0.2,0.2-0.4,0.2-0.7,0.2
			c-0.3,0-0.5,0-0.6-0.1c-0.2-0.1-0.3-0.2-0.4-0.4s-0.2-0.4-0.2-0.6c-0.1-0.2-0.1-0.5-0.2-0.7l-1.7-6.7c-0.1-0.4-0.2-0.7-0.2-0.9
			c0-0.3,0.1-0.5,0.3-0.7s0.4-0.3,0.7-0.3c0.4,0,0.6,0.1,0.7,0.4s0.2,0.6,0.3,1l1.3,5.9l1.5-5.5c0.1-0.4,0.2-0.7,0.3-1
			s0.2-0.4,0.4-0.6s0.5-0.2,0.8-0.2s0.6,0.1,0.8,0.2c0.2,0.2,0.3,0.3,0.4,0.5s0.2,0.5,0.3,1l1.5,5.5l1.3-5.9
			c0.1-0.3,0.1-0.5,0.2-0.7s0.2-0.3,0.3-0.5s0.3-0.2,0.6-0.2s0.5,0.1,0.7,0.3c0.2,0.2,0.3,0.4,0.3,0.7c0,0.2-0.1,0.5-0.2,0.9
			l-1.7,6.7c-0.1,0.5-0.2,0.8-0.3,1c-0.1,0.2-0.2,0.4-0.4,0.6s-0.4,0.2-0.8,0.2c-0.3,0-0.6-0.1-0.7-0.2s-0.3-0.3-0.4-0.5
			C503.5,518.6,503.4,518.2,503.3,517.8z"/>
		<path class="st12" d="M509.4,518.3v-7.9c0-0.4,0.1-0.7,0.3-0.9s0.4-0.3,0.7-0.3c0.3,0,0.6,0.1,0.7,0.3c0.2,0.2,0.3,0.5,0.3,0.9
			v7.9c0,0.4-0.1,0.7-0.3,0.9s-0.4,0.3-0.7,0.3c-0.3,0-0.5-0.1-0.7-0.3C509.5,519,509.4,518.7,509.4,518.3z"/>
		<path class="st12" d="M516.3,510.4l3.9,5.9v-6c0-0.4,0.1-0.7,0.2-0.9c0.2-0.2,0.4-0.3,0.7-0.3s0.5,0.1,0.7,0.3
			c0.2,0.2,0.3,0.5,0.3,0.9v7.9c0,0.9-0.4,1.3-1.1,1.3c-0.2,0-0.3,0-0.5-0.1c-0.1-0.1-0.3-0.1-0.4-0.2s-0.2-0.2-0.4-0.4
			c-0.1-0.2-0.2-0.3-0.3-0.5l-3.8-5.8v5.9c0,0.4-0.1,0.7-0.3,0.9s-0.4,0.3-0.7,0.3s-0.5-0.1-0.7-0.3s-0.3-0.5-0.3-0.9v-7.7
			c0-0.3,0-0.6,0.1-0.8c0.1-0.2,0.2-0.4,0.4-0.5s0.4-0.2,0.6-0.2c0.2,0,0.3,0,0.5,0.1s0.2,0.1,0.3,0.2s0.2,0.2,0.3,0.4
			S516.2,510.2,516.3,510.4z"/>
		<path class="st12" d="M530.8,511h-2.2v7.3c0,0.4-0.1,0.7-0.3,0.9s-0.4,0.3-0.7,0.3s-0.5-0.1-0.7-0.3s-0.3-0.5-0.3-0.9V511h-2.2
			c-0.3,0-0.6-0.1-0.8-0.2c-0.2-0.2-0.3-0.4-0.3-0.6c0-0.3,0.1-0.5,0.3-0.6s0.4-0.2,0.8-0.2h6.5c0.4,0,0.6,0.1,0.8,0.2
			s0.3,0.4,0.3,0.6s-0.1,0.5-0.3,0.6C531.5,510.9,531.2,511,530.8,511z"/>
		<path class="st12" d="M539.7,510.9h-4.6v2.5h4.2c0.3,0,0.5,0.1,0.7,0.2c0.2,0.1,0.2,0.3,0.2,0.6s-0.1,0.4-0.2,0.6
			c-0.2,0.1-0.4,0.2-0.7,0.2h-4.2v2.9h4.7c0.3,0,0.6,0.1,0.7,0.2c0.2,0.1,0.2,0.3,0.2,0.6c0,0.2-0.1,0.4-0.2,0.6
			c-0.2,0.1-0.4,0.2-0.7,0.2h-5.5c-0.4,0-0.8-0.1-1-0.3s-0.3-0.5-0.3-1v-7.5c0-0.3,0-0.5,0.1-0.7s0.2-0.3,0.4-0.4s0.4-0.1,0.7-0.1
			h5.4c0.3,0,0.6,0.1,0.7,0.2c0.2,0.1,0.2,0.3,0.2,0.6c0,0.2-0.1,0.4-0.2,0.6C540.3,510.8,540,510.9,539.7,510.9z"/>
		<path class="st12" d="M545.2,515h-0.7v3.2c0,0.4-0.1,0.7-0.3,0.9s-0.4,0.3-0.7,0.3s-0.6-0.1-0.8-0.3s-0.3-0.5-0.3-0.9v-7.7
			c0-0.4,0.1-0.8,0.3-1s0.5-0.3,1-0.3h3.3c0.5,0,0.8,0,1.2,0.1c0.3,0,0.6,0.1,0.9,0.2c0.3,0.1,0.6,0.3,0.8,0.6s0.4,0.5,0.6,0.9
			c0.1,0.3,0.2,0.7,0.2,1c0,0.7-0.2,1.3-0.6,1.8s-1.1,0.8-1.9,1c0.4,0.2,0.7,0.5,1,0.8s0.6,0.8,0.9,1.2c0.3,0.4,0.5,0.8,0.6,1.1
			s0.2,0.6,0.2,0.7c0,0.1,0,0.3-0.1,0.4c-0.1,0.1-0.2,0.2-0.3,0.3s-0.3,0.1-0.5,0.1s-0.4-0.1-0.6-0.2c-0.2-0.1-0.3-0.2-0.4-0.4
			s-0.3-0.4-0.5-0.7l-0.8-1.4c-0.3-0.5-0.6-0.9-0.8-1.1s-0.5-0.4-0.7-0.5S545.5,515,545.2,515z M546.3,510.8h-1.9v2.8h1.8
			c0.5,0,0.9,0,1.2-0.1s0.6-0.2,0.8-0.4s0.3-0.5,0.3-0.8s-0.1-0.5-0.2-0.7c-0.1-0.2-0.3-0.4-0.6-0.5
			C547.5,510.9,547,510.8,546.3,510.8z"/>
		<path class="st13" d="M498.8,527.2l3.9,5.9v-6c0-0.4,0.1-0.7,0.2-0.9c0.2-0.2,0.4-0.3,0.7-0.3c0.3,0,0.5,0.1,0.7,0.3
			s0.3,0.5,0.3,0.9v7.9c0,0.9-0.4,1.3-1.1,1.3c-0.2,0-0.3,0-0.5-0.1c-0.1-0.1-0.3-0.1-0.4-0.2s-0.2-0.2-0.4-0.4
			c-0.1-0.2-0.2-0.3-0.3-0.5l-3.8-5.8v5.9c0,0.4-0.1,0.7-0.3,0.9s-0.4,0.3-0.7,0.3c-0.3,0-0.5-0.1-0.7-0.3s-0.3-0.5-0.3-0.9v-7.7
			c0-0.3,0-0.6,0.1-0.8s0.2-0.4,0.4-0.5c0.2-0.1,0.4-0.2,0.6-0.2s0.3,0,0.5,0.1s0.2,0.1,0.3,0.2s0.2,0.2,0.3,0.4
			S498.7,527,498.8,527.2z"/>
		<path class="st13" d="M513.7,532.5c0,0.6-0.1,1.1-0.3,1.5s-0.4,0.9-0.8,1.2s-0.7,0.6-1.2,0.8s-1,0.3-1.5,0.3
			c-0.6,0-1.1-0.1-1.5-0.3s-0.8-0.4-1.2-0.8c-0.3-0.3-0.6-0.7-0.8-1.2c-0.2-0.5-0.3-1-0.3-1.5c0-0.6,0.1-1.1,0.3-1.6
			s0.4-0.9,0.7-1.2s0.7-0.6,1.2-0.8s1-0.3,1.5-0.3c0.6,0,1.1,0.1,1.5,0.3s0.9,0.4,1.2,0.8s0.6,0.7,0.7,1.2S513.7,531.9,513.7,532.5z
			 M511.8,532.5c0-0.8-0.2-1.4-0.5-1.8s-0.8-0.6-1.4-0.6c-0.4,0-0.7,0.1-1,0.3s-0.5,0.5-0.6,0.8s-0.2,0.8-0.2,1.3s0.1,0.9,0.2,1.3
			s0.4,0.6,0.6,0.8c0.3,0.2,0.6,0.3,1,0.3c0.6,0,1-0.2,1.4-0.6C511.6,533.8,511.8,533.3,511.8,532.5z"/>
		<path class="st13" d="M516.3,529.9l1.5,4.2l1.6-4.4c0.1-0.4,0.3-0.6,0.4-0.8c0.1-0.1,0.3-0.2,0.6-0.2c0.2,0,0.4,0.1,0.6,0.2
			s0.2,0.3,0.2,0.6c0,0.1,0,0.2,0,0.3s-0.1,0.2-0.1,0.3s-0.1,0.2-0.1,0.3l-1.8,4.4c-0.1,0.1-0.1,0.3-0.2,0.5s-0.2,0.4-0.3,0.5
			s-0.2,0.2-0.4,0.3s-0.3,0.1-0.5,0.1c-0.3,0-0.5-0.1-0.6-0.2c-0.2-0.1-0.3-0.3-0.3-0.4c-0.1-0.1-0.2-0.4-0.4-0.9l-1.8-4.4
			c0-0.1-0.1-0.2-0.1-0.3s-0.1-0.2-0.1-0.3s0-0.2,0-0.3s0-0.3,0.1-0.4c0.1-0.1,0.2-0.2,0.3-0.3s0.3-0.1,0.4-0.1
			c0.3,0,0.5,0.1,0.6,0.3S516.1,529.5,516.3,529.9z"/>
		<path class="st13" d="M529,535.2V529c-1.2,0.9-1.9,1.3-2.3,1.3c-0.2,0-0.4-0.1-0.5-0.2c-0.1-0.2-0.2-0.3-0.2-0.5s0.1-0.4,0.2-0.5
			s0.4-0.3,0.8-0.4c0.6-0.3,1-0.5,1.3-0.8s0.6-0.6,0.9-1s0.4-0.6,0.5-0.7s0.2-0.1,0.4-0.1s0.4,0.1,0.6,0.3s0.2,0.4,0.2,0.8v7.8
			c0,0.9-0.3,1.4-0.9,1.4c-0.3,0-0.5-0.1-0.7-0.3S529,535.6,529,535.2z"/>
		<path class="st13" d="M540.3,533.3h-2.2c-0.3,0-0.6-0.1-0.7-0.2c-0.2-0.2-0.3-0.4-0.3-0.6c0-0.2,0.1-0.4,0.2-0.6
			c0.2-0.2,0.4-0.2,0.8-0.2h2.2c0.3,0,0.6,0.1,0.8,0.2c0.2,0.2,0.2,0.4,0.2,0.6c0,0.2-0.1,0.4-0.2,0.6
			C540.9,533.2,540.7,533.3,540.3,533.3z"/>
		<path class="st13" d="M552.6,535l-0.5-1.3H548l-0.5,1.3c-0.2,0.5-0.3,0.8-0.5,1c-0.1,0.2-0.3,0.3-0.6,0.3s-0.5-0.1-0.7-0.3
			s-0.3-0.4-0.3-0.6c0-0.1,0-0.3,0.1-0.4s0.1-0.3,0.2-0.6l2.6-6.5c0.1-0.2,0.2-0.4,0.3-0.7s0.2-0.5,0.3-0.7s0.3-0.3,0.5-0.4
			c0.2-0.1,0.4-0.2,0.7-0.2s0.5,0.1,0.7,0.2c0.2,0.1,0.3,0.2,0.5,0.4s0.2,0.3,0.3,0.5s0.2,0.5,0.3,0.8l2.6,6.5
			c0.2,0.5,0.3,0.8,0.3,1.1c0,0.2-0.1,0.4-0.3,0.6c-0.2,0.2-0.4,0.3-0.7,0.3c-0.2,0-0.3,0-0.4-0.1c-0.1-0.1-0.2-0.1-0.3-0.2
			c-0.1-0.1-0.2-0.2-0.2-0.5C552.7,535.3,552.6,535.2,552.6,535z M548.6,532.2h3l-1.5-4.1L548.6,532.2z"/>
		<path class="st13" d="M557.8,529.8v0.2c0.4-0.4,0.7-0.8,1.1-1c0.4-0.2,0.8-0.3,1.3-0.3c0.6,0,1.1,0.1,1.6,0.4s0.9,0.7,1.1,1.3
			s0.4,1.2,0.4,2c0,0.6-0.1,1.1-0.2,1.6c-0.2,0.5-0.4,0.9-0.7,1.2s-0.6,0.6-1,0.8s-0.8,0.3-1.2,0.3c-0.5,0-1-0.1-1.3-0.3
			s-0.7-0.5-1-0.9v2.8c0,0.8-0.3,1.2-0.9,1.2c-0.4,0-0.6-0.1-0.7-0.3c-0.1-0.2-0.2-0.5-0.2-0.9v-8.1c0-0.4,0.1-0.6,0.2-0.8
			c0.2-0.2,0.4-0.3,0.6-0.3c0.3,0,0.5,0.1,0.6,0.3C557.7,529.2,557.8,529.4,557.8,529.8z M561.5,532.5c0-0.5-0.1-0.9-0.2-1.3
			c-0.2-0.4-0.4-0.6-0.6-0.8c-0.3-0.2-0.6-0.3-0.9-0.3c-0.5,0-0.9,0.2-1.3,0.6s-0.5,1-0.5,1.8c0,0.7,0.2,1.3,0.5,1.7
			c0.4,0.4,0.8,0.6,1.3,0.6c0.3,0,0.6-0.1,0.9-0.3c0.3-0.2,0.5-0.5,0.6-0.8S561.5,533,561.5,532.5z"/>
		<path class="st13" d="M566.7,533.6v1.6c0,0.4-0.1,0.7-0.3,0.9s-0.4,0.3-0.7,0.3s-0.5-0.1-0.7-0.3s-0.3-0.5-0.3-0.8V530
			c0-0.8,0.3-1.3,0.9-1.3c0.3,0,0.5,0.1,0.7,0.3s0.2,0.5,0.2,0.9c0.2-0.4,0.5-0.7,0.7-0.9s0.5-0.3,0.9-0.3s0.8,0.1,1.1,0.3
			s0.6,0.5,0.6,0.8c0,0.2-0.1,0.4-0.2,0.6c-0.2,0.1-0.3,0.2-0.5,0.2c-0.1,0-0.2,0-0.5-0.1s-0.5-0.1-0.7-0.1c-0.3,0-0.5,0.1-0.7,0.2
			c-0.2,0.1-0.3,0.4-0.4,0.6s-0.2,0.6-0.2,1C566.7,532.6,566.7,533,566.7,533.6z"/>
		<path class="st13" d="M577.4,530.1c0.4,0,0.8-0.1,1.1-0.4s0.5-0.6,0.5-1.1c0-0.4-0.1-0.7-0.4-0.9c-0.2-0.3-0.6-0.4-1-0.4
			c-0.3,0-0.5,0-0.7,0.1s-0.3,0.2-0.4,0.3s-0.2,0.3-0.3,0.5s-0.2,0.4-0.3,0.6c0,0.1-0.1,0.2-0.2,0.2s-0.3,0.1-0.4,0.1
			c-0.2,0-0.3-0.1-0.5-0.2c-0.2-0.1-0.2-0.3-0.2-0.6c0-0.2,0.1-0.5,0.2-0.7c0.1-0.3,0.4-0.5,0.6-0.7s0.6-0.4,1-0.6
			c0.4-0.1,0.9-0.2,1.4-0.2c0.4,0,0.8,0.1,1.2,0.2c0.4,0.1,0.7,0.3,1,0.5s0.5,0.5,0.6,0.8s0.2,0.6,0.2,1c0,0.5-0.1,0.8-0.3,1.2
			c-0.2,0.3-0.5,0.6-0.9,1c0.4,0.2,0.7,0.4,0.9,0.7s0.4,0.5,0.6,0.8c0.1,0.3,0.2,0.6,0.2,1s-0.1,0.8-0.2,1.2s-0.4,0.7-0.7,1
			s-0.7,0.5-1.2,0.7c-0.4,0.2-0.9,0.3-1.5,0.3c-0.5,0-1-0.1-1.5-0.3s-0.8-0.4-1.1-0.7s-0.5-0.6-0.6-0.9s-0.2-0.6-0.2-0.8
			c0-0.3,0.1-0.5,0.3-0.6c0.2-0.2,0.4-0.2,0.6-0.2c0.1,0,0.3,0,0.4,0.1c0.1,0.1,0.2,0.2,0.2,0.3c0.2,0.6,0.5,1.1,0.8,1.4
			c0.3,0.3,0.7,0.5,1.1,0.5c0.3,0,0.6-0.1,0.8-0.2c0.3-0.1,0.5-0.3,0.6-0.6s0.3-0.6,0.3-1c0-0.5-0.1-1-0.4-1.3
			c-0.3-0.3-0.7-0.5-1.2-0.5c-0.1,0-0.2,0-0.4,0s-0.3,0-0.4,0c-0.3,0-0.4-0.1-0.6-0.2c-0.1-0.1-0.2-0.3-0.2-0.5s0.1-0.4,0.2-0.5
			c0.2-0.1,0.4-0.2,0.7-0.2h0.3L577.4,530.1L577.4,530.1z"/>
		<path class="st13" d="M585.8,535.2V529c-1.2,0.9-1.9,1.3-2.3,1.3c-0.2,0-0.4-0.1-0.5-0.2c-0.1-0.2-0.2-0.3-0.2-0.5
			s0.1-0.4,0.2-0.5s0.4-0.3,0.8-0.4c0.6-0.3,1-0.5,1.3-0.8s0.6-0.6,0.9-1s0.4-0.6,0.5-0.7s0.2-0.1,0.4-0.1s0.4,0.1,0.6,0.3
			s0.2,0.4,0.2,0.8v7.8c0,0.9-0.3,1.4-0.9,1.4c-0.3,0-0.5-0.1-0.7-0.3S585.8,535.6,585.8,535.2z"/>
	</g>
</g>
<g id="Layer_2_1_">
	<g>
		<path class="st12" d="M713.1,123.3L713.1,123.3l-2.1,1.1l-0.3-1.2l2.4-1.3c0.1-0.1,0.2-0.1,0.4-0.1h1.2v10.9
			c0,0.4-0.3,0.8-0.8,0.8l0,0c-0.4,0-0.8-0.3-0.8-0.8L713.1,123.3L713.1,123.3z"/>
	</g>
	<g>
		<path class="st12" d="M627.2,107.3c-0.1-2.2-0.3-4.8-0.2-6.8h-0.1c-0.5,1.8-1.2,3.8-2,6l-2.8,7.6h-1.5l-2.5-7.5
			c-0.7-2.2-1.4-4.2-1.8-6.1l0,0c0,2-0.2,4.6-0.3,6.9l-0.4,6.7h-1.9l1.1-15.7h2.6l2.7,7.6c0.7,1.9,1.2,3.7,1.6,5.3h0.1
			c0.4-1.6,1-3.3,1.7-5.3l2.8-7.6h2.6l1,15.7h-2L627.2,107.3z"/>
		<path class="st12" d="M634.7,98.5v15.7h-2V98.5H634.7z"/>
		<path class="st12" d="M638.3,98.7c1.2-0.2,2.7-0.3,4.3-0.3c2.9,0,5,0.7,6.4,2s2.2,3.1,2.2,5.6c0,2.6-0.8,4.7-2.3,6.1
			c-1.5,1.5-3.9,2.3-6.9,2.3c-1.4,0-2.7-0.1-3.7-0.2V98.7z M640.3,112.6c0.5,0.1,1.3,0.1,2.1,0.1c4.3,0,6.7-2.4,6.7-6.7
			c0-3.7-2.1-6.1-6.4-6.1c-1,0-1.8,0.1-2.4,0.2L640.3,112.6L640.3,112.6z"/>
		<path class="st12" d="M653.8,114.2V98.5h2.2l5,8c1.2,1.8,2.1,3.5,2.8,5.1l0,0c-0.2-2.1-0.2-4-0.2-6.5v-6.6h1.9v15.7h-2.1l-5-8
			c-1.1-1.7-2.1-3.5-2.9-5.2h-0.1c0.1,2,0.2,3.9,0.2,6.5v6.7H653.8z"/>
		<path class="st12" d="M671.2,98.5v15.7h-2V98.5H671.2z"/>
		<path class="st12" d="M686.7,113.5c-0.9,0.3-2.7,0.9-4.8,0.9c-2.4,0-4.3-0.6-5.9-2.1c-1.4-1.3-2.2-3.4-2.2-5.9
			c0-4.7,3.2-8.1,8.5-8.1c1.8,0,3.2,0.4,3.9,0.7l-0.5,1.7c-0.8-0.4-1.9-0.7-3.5-0.7c-3.8,0-6.3,2.4-6.3,6.3c0,4,2.4,6.3,6.1,6.3
			c1.3,0,2.2-0.2,2.7-0.4v-4.7h-3.2V106h5.2V113.5z"/>
		<path class="st12" d="M691.8,98.5v6.6h7.6v-6.6h2.1v15.7h-2.1v-7.4h-7.6v7.4h-2V98.5H691.8z"/>
		<path class="st12" d="M707.9,100.2h-4.8v-1.7h11.6v1.7H710v14h-2.1V100.2z"/>
	</g>
	<g>
		<path class="st12" d="M750.1,149.6v-1l1.2-1.2c3-2.8,4.3-4.4,4.4-6.1c0-1.2-0.6-2.3-2.3-2.3c-1.1,0-1.9,0.5-2.5,1l-0.5-1.1
			c0.8-0.7,2-1.2,3.3-1.2c2.5,0,3.6,1.7,3.6,3.4c0,2.2-1.6,3.9-4,6.3l-0.9,0.9l0,0h5.3v1.3L750.1,149.6L750.1,149.6z"/>
	</g>
	<g>
		<path class="st12" d="M786.5,176.4c0.5,0.3,1.5,0.7,2.6,0.7c2,0,2.7-1.3,2.6-2.3c0-1.6-1.5-2.3-3-2.3h-0.9v-1.2h0.9
			c1.2,0,2.6-0.6,2.6-2c0-0.9-0.6-1.8-2.1-1.8c-0.9,0-1.8,0.4-2.3,0.8l-0.4-1.2c0.6-0.4,1.8-0.9,3.1-0.9c2.3,0,3.3,1.4,3.3,2.8
			c0,1.2-0.7,2.2-2.2,2.8l0,0c1.4,0.3,2.6,1.4,2.6,3c0,1.9-1.5,3.5-4.3,3.5c-1.3,0-2.5-0.4-3-0.8L786.5,176.4z"/>
	</g>
	<g>
		<path class="st12" d="M817.2,214.7v-3.2h-5.4v-1l5.2-7.5h1.7v7.3h1.6v1.2h-1.6v3.2H817.2z M817.2,210.3v-3.9c0-0.6,0-1.2,0.1-1.8
			h-0.1c-0.4,0.7-0.6,1.2-1,1.7l-2.9,4l0,0H817.2z"/>
	</g>
	<g>
		<path class="st12" d="M835.2,245.3h-4.5l-0.5,3c0.3,0,0.5-0.1,1-0.1c0.9,0,1.8,0.2,2.5,0.6c0.9,0.5,1.7,1.5,1.7,3
			c0,2.3-1.8,4-4.4,4c-1.3,0-2.4-0.4-2.9-0.7l0.4-1.2c0.5,0.3,1.4,0.6,2.5,0.6c1.5,0,2.8-1,2.8-2.5s-1-2.6-3.4-2.6
			c-0.7,0-1.2,0.1-1.6,0.1l0.8-5.6h5.6L835.2,245.3L835.2,245.3z"/>
	</g>
	<g>
		<path class="st12" d="M839.6,291c-0.3,0-0.7,0-1.2,0.1c-2.5,0.4-3.8,2.2-4.1,4.2h0.1c0.6-0.7,1.5-1.4,2.8-1.4
			c2.1,0,3.5,1.5,3.5,3.8c0,2.1-1.5,4.1-3.9,4.1c-2.5,0-4.1-1.9-4.1-5c0-2.3,0.8-4.1,2-5.3c1-1,2.3-1.5,3.7-1.7
			c0.5-0.1,0.9-0.1,1.2-0.1V291z M839.1,297.7c0-1.7-1-2.7-2.4-2.7c-1,0-1.8,0.6-2.3,1.4c-0.1,0.2-0.2,0.4-0.2,0.7
			c0,1.9,0.9,3.3,2.6,3.3C838.2,300.5,839.1,299.4,839.1,297.7z"/>
	</g>
	<g>
		<path class="st2" d="M840.1,342.6v1.5l-7.4,15.5h-2.4l7.4-15v-0.1h-8.3v-1.9H840.1z"/>
	</g>
	<g>
		<path class="st12" d="M810.8,383.7c0-1.5,0.9-2.5,2.3-3.1v-0.1c-1.3-0.6-1.9-1.6-1.9-2.6c0-1.9,1.6-3.1,3.6-3.1
			c2.3,0,3.4,1.4,3.4,2.9c0,1-0.5,2.1-1.9,2.7v0.1c1.5,0.6,2.4,1.6,2.4,3c0,2-1.7,3.4-4,3.4C812.3,386.9,810.8,385.5,810.8,383.7z
			 M817.1,383.7c0-1.4-1-2.1-2.6-2.6c-1.4,0.4-2.1,1.3-2.1,2.4c-0.1,1.2,0.8,2.2,2.3,2.2C816.2,385.8,817.1,384.9,817.1,383.7z
			 M812.8,377.8c0,1.2,0.9,1.8,2.2,2.2c1-0.3,1.8-1.1,1.8-2.1c0-0.9-0.6-1.9-2-1.9C813.5,375.9,812.8,376.8,812.8,377.8z"/>
	</g>
	<g>
		<path class="st12" d="M786.7,419.9c0.3,0,0.7,0,1.3-0.1c0.9-0.1,1.8-0.5,2.4-1.1c0.8-0.7,1.3-1.7,1.5-3.1h0.1
			c-0.6,0.8-1.6,1.3-2.8,1.3c-2.1,0-3.5-1.6-3.5-3.6c0-2.2,1.6-4.2,4-4.2s3.9,1.9,3.9,4.9c0,2.6-0.9,4.4-2,5.5
			c-0.9,0.9-2.1,1.4-3.4,1.6c-0.6,0.1-1.1,0.1-1.5,0.1V419.9z M787.3,413.2c0,1.5,0.9,2.5,2.3,2.5c1.1,0,1.9-0.5,2.3-1.2
			c0.1-0.1,0.1-0.3,0.1-0.6c0-2-0.7-3.5-2.4-3.5C788.3,410.3,787.3,411.5,787.3,413.2z"/>
	</g>
	<g>
		<path class="st12" d="M750.2,439L750.2,439l-2.1,1.1l-0.3-1.2l2.6-1.4h1.3v11.7h-1.5V439z"/>
		<path class="st12" d="M763.8,443.2c0,4-1.5,6.2-4.1,6.2c-2.3,0-3.8-2.1-3.9-6c0-3.9,1.7-6.1,4.1-6.1
			C762.4,437.3,763.8,439.5,763.8,443.2z M757.4,443.4c0,3,0.9,4.8,2.4,4.8c1.6,0,2.4-1.9,2.4-4.9c0-2.9-0.7-4.8-2.4-4.8
			C758.4,438.5,757.4,440.2,757.4,443.4z"/>
	</g>
	<g>
		<path class="st2" d="M719.6,464.3L719.6,464.3l-3,1.6l-0.4-1.7l3.4-1.8c0.2-0.1,0.3-0.1,0.5-0.1h1.7v15.8c0,0.6-0.5,1.1-1.1,1.1
			l0,0c-0.6,0-1.1-0.5-1.1-1.1L719.6,464.3L719.6,464.3z"/>
	</g>
	<g>
		<path class="st12" d="M630.3,479.2V464h2.2l4.9,7.8c1.1,1.8,2,3.4,2.8,5l0,0c-0.2-2-0.2-3.9-0.2-6.3V464h1.9v15.3h-2l-4.9-7.8
			c-1.1-1.7-2.1-3.5-2.9-5.1H632c0.1,1.9,0.2,3.8,0.2,6.3v6.6L630.3,479.2L630.3,479.2z"/>
		<path class="st12" d="M658.4,471.3c0,5.3-3.2,8.1-7.1,8.1c-4.1,0-6.9-3.1-6.9-7.8c0-4.9,3-8.1,7.1-8.1
			C655.7,463.6,658.4,466.8,658.4,471.3z M646.5,471.6c0,3.3,1.8,6.2,4.9,6.2c3.1,0,4.9-2.9,4.9-6.4c0-3-1.6-6.2-4.9-6.2
			C648.1,465.2,646.5,468.2,646.5,471.6z"/>
		<path class="st12" d="M674.1,471.3c0,5.3-3.2,8.1-7.1,8.1c-4.1,0-6.9-3.1-6.9-7.8c0-4.9,3-8.1,7.1-8.1
			C671.4,463.6,674.1,466.8,674.1,471.3z M662.2,471.6c0,3.3,1.8,6.2,4.9,6.2c3.1,0,4.9-2.9,4.9-6.4c0-3-1.6-6.2-4.9-6.2
			S662.2,468.2,662.2,471.6z"/>
		<path class="st12" d="M676.6,479.2V464h2.2l4.9,7.8c1.1,1.8,2,3.4,2.8,5l0,0c-0.2-2-0.2-3.9-0.2-6.3V464h1.9v15.3h-2l-4.9-7.8
			c-1.1-1.7-2.1-3.5-2.9-5.1h-0.1c0.1,1.9,0.2,3.8,0.2,6.3v6.6L676.6,479.2L676.6,479.2z"/>
	</g>
	<g>
		<path class="st12" d="M606.5,461L606.5,461l-2.1,1.1l-0.3-1.2l2.6-1.4h1.3v11.7h-1.5V461z"/>
	</g>
	<g>
		<path class="st12" d="M570.6,458.6v-1l1.2-1.2c3-2.8,4.3-4.4,4.4-6.1c0-1.2-0.6-2.3-2.3-2.3c-1.1,0-1.9,0.5-2.5,1l-0.5-1.1
			c0.8-0.7,2-1.2,3.3-1.2c2.5,0,3.6,1.7,3.6,3.4c0,2.2-1.6,3.9-4,6.3l-0.9,0.9l0,0h5.3v1.3L570.6,458.6L570.6,458.6z"/>
	</g>
	<path class="st12" d="M543.4,438.4c0.5,0.3,1.5,0.7,2.6,0.7c2,0,2.7-1.3,2.6-2.3c0-1.6-1.5-2.3-3-2.3h-0.9v-1.2h0.9
		c1.2,0,2.6-0.6,2.6-2c0-0.9-0.6-1.8-2.1-1.8c-0.9,0-1.8,0.4-2.3,0.8l-0.4-1.2c0.6-0.5,1.8-0.9,3.1-0.9c2.3,0,3.3,1.4,3.3,2.8
		c0,1.2-0.7,2.2-2.2,2.8l0,0c1.4,0.3,2.6,1.4,2.6,3c0,1.9-1.5,3.5-4.3,3.5c-1.3,0-2.5-0.4-3-0.8L543.4,438.4z"/>
	<path class="st12" d="M526.1,415.4v-1.7c0-0.4-0.3-0.7-0.7-0.7h-4.7v-1l5-7.2c0.1-0.2,0.4-0.3,0.6-0.3h0.6c0.4,0,0.7,0.3,0.7,0.7
		v5.8c0,0.4,0.3,0.7,0.7,0.7h0.9v1.2h-0.9c-0.4,0-0.7,0.3-0.7,0.7v1.7c0,0.4-0.3,0.7-0.7,0.7l0,0
		C526.5,416.2,526.1,415.8,526.1,415.4z M525.4,411.8c0.4,0,0.7-0.3,0.7-0.7v-3.2c0-0.6,0-1.2,0.1-1.8h-0.1c-0.4,0.7-0.6,1.2-1,1.7
		c0,0,0,0,0,0.1l-2.8,4l0,0h3.1V411.8z"/>
	<path class="st2" d="M506.2,383.7h-6.7l-0.7,4.5c0.4-0.1,0.8-0.1,1.4-0.1c1.4,0,2.7,0.3,3.8,1c1.4,0.8,2.5,2.3,2.5,4.5
		c0,3.4-2.7,6-6.6,6c-1.9,0-3.6-0.5-4.4-1.1l0.6-1.8c0.7,0.4,2.2,1,3.8,1c2.3,0,4.2-1.5,4.2-3.8s-1.5-3.9-5.1-3.9
		c-1,0-1.8,0.1-2.4,0.2l1.1-8.5h8.4v2H506.2z"/>
	<path class="st12" d="M486.7,307c-0.3,0-0.7,0-1.2,0.1c-2.5,0.4-3.8,2.2-4.1,4.2h0.1c0.6-0.7,1.5-1.4,2.8-1.4
		c2.1,0,3.5,1.5,3.5,3.8c0,2.1-1.5,4.1-3.9,4.1c-2.5,0-4.1-1.9-4.1-5c0-2.3,0.8-4.1,2-5.3c1-1,2.3-1.5,3.7-1.7
		c0.5-0.1,0.9-0.1,1.2-0.1V307z M486.2,313.7c0-1.7-1-2.7-2.4-2.7c-1,0-1.8,0.6-2.3,1.4c-0.1,0.2-0.2,0.4-0.2,0.7
		c0,1.9,0.9,3.3,2.6,3.3C485.3,316.5,486.2,315.4,486.2,313.7z"/>
	<path class="st2" d="M490.5,235.7v0.7c0,0.6-0.1,1.2-0.4,1.7L484,251c-0.6,1.4-2,2.2-3.5,2.2l0,0l7.6-15.5v-0.1h-8.6v-2h11V235.7z"
		/>
	<path class="st12" d="M507.5,199.8c0-1.5,0.9-2.5,2.3-3.1v-0.1c-1.3-0.6-1.9-1.6-1.9-2.6c0-1.9,1.6-3.1,3.6-3.1
		c2.3,0,3.4,1.4,3.4,2.9c0,1-0.5,2.1-1.9,2.7v0.1c1.5,0.6,2.4,1.6,2.4,3c0,2-1.7,3.4-4,3.4C509,203,507.5,201.6,507.5,199.8z
		 M513.8,199.8c0-1.4-1-2.1-2.6-2.6c-1.4,0.4-2.1,1.3-2.1,2.4c-0.1,1.2,0.8,2.2,2.3,2.2C512.9,201.9,513.8,201,513.8,199.8z
		 M509.4,193.9c0,1.2,0.9,1.8,2.2,2.2c1-0.3,1.8-1.1,1.8-2.1c0-0.9-0.6-1.9-2-1.9C510.2,192,509.4,192.9,509.4,193.9z"/>
	<path class="st12" d="M535.5,165c0.3,0,0.7,0,1.3-0.1c0.9-0.1,1.8-0.5,2.4-1.1c0.8-0.7,1.3-1.7,1.5-3.1h-0.1
		c-0.6,0.8-1.6,1.3-2.8,1.3c-2.1,0-3.5-1.6-3.5-3.6c0-2.2,1.6-4.2,4-4.2s3.9,1.9,3.9,4.9c0,2.6-0.9,4.4-2,5.5
		c-0.9,0.9-2.1,1.4-3.4,1.6c-0.6,0.1-1.1,0.1-1.5,0.1V165H535.5z M536.1,158.2c0,1.5,0.9,2.5,2.3,2.5c1.1,0,1.9-0.5,2.3-1.2
		c0.1-0.1,0.1-0.3,0.1-0.6c0-2-0.7-3.5-2.4-3.5C537,155.4,536.1,156.6,536.1,158.2z"/>
	<path class="st12" d="M567.8,133.1L567.8,133.1l-2.1,1.1l-0.3-1.2l2.6-1.4h1.3v11.7h-1.5V133.1z"/>
	<path class="st12" d="M581.4,137.3c0,4-1.5,6.2-4.1,6.2c-2.3,0-3.8-2.1-3.9-6c0-3.9,1.7-6.1,4.1-6.1
		C579.9,131.4,581.4,133.6,581.4,137.3z M575,137.5c0,3,0.9,4.8,2.4,4.8c1.6,0,2.4-1.9,2.4-4.9c0-2.9-0.7-4.8-2.4-4.8
		C576,132.6,575,134.3,575,137.5z"/>
	<path class="st12" d="M600.1,120.3L600.1,120.3l-2.1,1.1l-0.3-1.2l2.6-1.4h1.3v11.7h-1.5V120.3z"/>
	<path class="st12" d="M609.4,120.3L609.4,120.3l-2.1,1.1l-0.3-1.2l2.6-1.4h1.3v11.7h-1.5V120.3z"/>
	<g>
		<path class="st12" d="M280.7,123.3L280.7,123.3l-2.1,1.1l-0.3-1.2l2.4-1.3c0.1-0.1,0.2-0.1,0.4-0.1h1.2v10.9
			c0,0.4-0.3,0.8-0.8,0.8l0,0c-0.4,0-0.8-0.3-0.8-0.8L280.7,123.3L280.7,123.3z"/>
	</g>
	<g>
		<path class="st12" d="M194.8,107.3c-0.1-2.2-0.3-4.8-0.2-6.8h-0.1c-0.5,1.8-1.2,3.8-2,6l-2.8,7.6h-1.5l-2.5-7.5
			c-0.7-2.2-1.4-4.2-1.8-6.1l0,0c0,2-0.2,4.6-0.3,6.9l-0.4,6.7h-1.9l1.1-15.7h2.6l2.7,7.6c0.7,1.9,1.2,3.7,1.6,5.3h0.1
			c0.4-1.6,1-3.3,1.7-5.3l2.8-7.6h2.6l1,15.7h-2L194.8,107.3z"/>
		<path class="st12" d="M202.3,98.5v15.7h-2V98.5H202.3z"/>
		<path class="st12" d="M205.9,98.7c1.2-0.2,2.7-0.3,4.3-0.3c2.9,0,5,0.7,6.4,2s2.2,3.1,2.2,5.6c0,2.6-0.8,4.7-2.3,6.1
			c-1.5,1.5-3.9,2.3-6.9,2.3c-1.4,0-2.7-0.1-3.7-0.2V98.7z M207.9,112.6c0.5,0.1,1.3,0.1,2.1,0.1c4.3,0,6.7-2.4,6.7-6.7
			c0-3.7-2.1-6.1-6.4-6.1c-1,0-1.8,0.1-2.4,0.2L207.9,112.6L207.9,112.6z"/>
		<path class="st12" d="M221.4,114.2V98.5h2.2l5,8c1.2,1.8,2.1,3.5,2.8,5.1l0,0c-0.2-2.1-0.2-4-0.2-6.5v-6.6h1.9v15.7H231l-5-8
			c-1.1-1.7-2.1-3.5-2.9-5.2H223c0.1,2,0.2,3.9,0.2,6.5v6.7H221.4z"/>
		<path class="st12" d="M238.7,98.5v15.7h-2V98.5H238.7z"/>
		<path class="st12" d="M254.2,113.5c-0.9,0.3-2.7,0.9-4.8,0.9c-2.4,0-4.3-0.6-5.9-2.1c-1.4-1.3-2.2-3.4-2.2-5.9
			c0-4.7,3.2-8.1,8.5-8.1c1.8,0,3.2,0.4,3.9,0.7l-0.5,1.7c-0.8-0.4-1.9-0.7-3.5-0.7c-3.8,0-6.3,2.4-6.3,6.3c0,4,2.4,6.3,6.1,6.3
			c1.3,0,2.2-0.2,2.7-0.4v-4.7H249V106h5.2V113.5z"/>
		<path class="st12" d="M259.4,98.5v6.6h7.6v-6.6h2.1v15.7H267v-7.4h-7.6v7.4h-2V98.5H259.4z"/>
		<path class="st12" d="M275.5,100.2h-4.8v-1.7h11.6v1.7h-4.8v14h-2.1L275.5,100.2L275.5,100.2z"/>
	</g>
	<g>
		<path class="st12" d="M317.6,149.6v-1l1.2-1.2c3-2.8,4.3-4.4,4.4-6.1c0-1.2-0.6-2.3-2.3-2.3c-1.1,0-1.9,0.5-2.5,1l-0.5-1.1
			c0.8-0.7,2-1.2,3.3-1.2c2.5,0,3.6,1.7,3.6,3.4c0,2.2-1.6,3.9-4,6.3l-0.9,0.9l0,0h5.3v1.3L317.6,149.6L317.6,149.6z"/>
	</g>
	<g>
		<path class="st12" d="M354.1,176.4c0.5,0.3,1.5,0.7,2.6,0.7c2,0,2.7-1.3,2.6-2.3c0-1.6-1.5-2.3-3-2.3h-0.9v-1.2h0.9
			c1.2,0,2.6-0.6,2.6-2c0-0.9-0.6-1.8-2.1-1.8c-0.9,0-1.8,0.4-2.3,0.8l-0.4-1.2c0.6-0.4,1.8-0.9,3.1-0.9c2.3,0,3.3,1.4,3.3,2.8
			c0,1.2-0.7,2.2-2.2,2.8l0,0c1.4,0.3,2.6,1.4,2.6,3c0,1.9-1.5,3.5-4.3,3.5c-1.3,0-2.5-0.4-3-0.8L354.1,176.4z"/>
	</g>
	<g>
		<path class="st12" d="M384.7,214.7v-3.2h-5.4v-1l5.2-7.5h1.7v7.3h1.6v1.2h-1.6v3.2H384.7z M384.7,210.3v-3.9c0-0.6,0-1.2,0.1-1.8
			h-0.1c-0.4,0.7-0.6,1.2-1,1.7l-2.9,4l0,0H384.7z"/>
	</g>
	<g>
		<path class="st12" d="M402.8,245.3h-4.5l-0.5,3c0.3,0,0.5-0.1,1-0.1c0.9,0,1.8,0.2,2.5,0.6c0.9,0.5,1.7,1.5,1.7,3
			c0,2.3-1.8,4-4.4,4c-1.3,0-2.4-0.4-2.9-0.7l0.4-1.2c0.5,0.3,1.4,0.6,2.5,0.6c1.5,0,2.8-1,2.8-2.5s-1-2.6-3.4-2.6
			c-0.7,0-1.2,0.1-1.6,0.1l0.8-5.6h5.6V245.3z"/>
	</g>
	<g>
		<path class="st12" d="M407.2,291c-0.3,0-0.7,0-1.2,0.1c-2.5,0.4-3.8,2.2-4.1,4.2h0.1c0.6-0.7,1.5-1.4,2.8-1.4
			c2.1,0,3.5,1.5,3.5,3.8c0,2.1-1.5,4.1-3.9,4.1c-2.5,0-4.1-1.9-4.1-5c0-2.3,0.8-4.1,2-5.3c1-1,2.3-1.5,3.7-1.7
			c0.5-0.1,0.9-0.1,1.2-0.1V291z M406.7,297.7c0-1.7-1-2.7-2.4-2.7c-1,0-1.8,0.6-2.3,1.4c-0.1,0.2-0.2,0.4-0.2,0.7
			c0,1.9,0.9,3.3,2.6,3.3C405.8,300.5,406.7,299.4,406.7,297.7z"/>
	</g>
	<g>
		<path class="st2" d="M407.7,342.6v1.5l-7.4,15.5h-2.4l7.4-15v-0.1H397v-1.9H407.7z"/>
	</g>
	<g>
		<path class="st12" d="M378.4,383.7c0-1.5,0.9-2.5,2.3-3.1v-0.1c-1.3-0.6-1.9-1.6-1.9-2.6c0-1.9,1.6-3.1,3.6-3.1
			c2.3,0,3.4,1.4,3.4,2.9c0,1-0.5,2.1-1.9,2.7v0.1c1.5,0.6,2.4,1.6,2.4,3c0,2-1.7,3.4-4,3.4C379.9,386.9,378.4,385.5,378.4,383.7z
			 M384.7,383.7c0-1.4-1-2.1-2.6-2.6c-1.4,0.4-2.1,1.3-2.1,2.4c-0.1,1.2,0.8,2.2,2.3,2.2C383.8,385.8,384.7,384.9,384.7,383.7z
			 M380.3,377.8c0,1.2,0.9,1.8,2.2,2.2c1-0.3,1.8-1.1,1.8-2.1c0-0.9-0.6-1.9-2-1.9C381.1,375.9,380.3,376.8,380.3,377.8z"/>
	</g>
	<g>
		<path class="st12" d="M354.3,419.9c0.3,0,0.7,0,1.3-0.1c0.9-0.1,1.8-0.5,2.4-1.1c0.8-0.7,1.3-1.7,1.5-3.1h-0.1
			c-0.6,0.8-1.6,1.3-2.8,1.3c-2.1,0-3.5-1.6-3.5-3.6c0-2.2,1.6-4.2,4-4.2s3.9,1.9,3.9,4.9c0,2.6-0.9,4.4-2,5.5
			c-0.9,0.9-2.1,1.4-3.4,1.6c-0.6,0.1-1.1,0.1-1.5,0.1v-1.3H354.3z M354.9,413.2c0,1.5,0.9,2.5,2.3,2.5c1.1,0,1.9-0.5,2.3-1.2
			c0.1-0.1,0.1-0.3,0.1-0.6c0-2-0.7-3.5-2.4-3.5C355.9,410.3,354.9,411.5,354.9,413.2z"/>
	</g>
	<g>
		<path class="st12" d="M317.8,439L317.8,439l-2.1,1.1l-0.3-1.2l2.6-1.4h1.3v11.7h-1.5V439z"/>
		<path class="st12" d="M331.4,443.2c0,4-1.5,6.2-4.1,6.2c-2.3,0-3.8-2.1-3.9-6c0-3.9,1.7-6.1,4.1-6.1
			C330,437.3,331.4,439.5,331.4,443.2z M325,443.4c0,3,0.9,4.8,2.4,4.8c1.6,0,2.4-1.9,2.4-4.9c0-2.9-0.7-4.8-2.4-4.8
			C326,438.5,325,440.2,325,443.4z"/>
	</g>
	<g>
		<path class="st12" d="M198.8,479.2V464h2.2l4.9,7.8c1.1,1.8,2,3.4,2.8,5l0,0c-0.2-2-0.2-3.9-0.2-6.3V464h1.9v15.3h-2l-4.9-7.8
			c-1.1-1.7-2.1-3.5-2.9-5.1h-0.1c0.1,1.9,0.2,3.8,0.2,6.3v6.6L198.8,479.2L198.8,479.2z"/>
		<path class="st12" d="M226.9,471.3c0,5.3-3.2,8.1-7.1,8.1c-4.1,0-6.9-3.1-6.9-7.8c0-4.9,3-8.1,7.1-8.1
			C224.2,463.6,226.9,466.8,226.9,471.3z M215,471.6c0,3.3,1.8,6.2,4.9,6.2s4.9-2.9,4.9-6.4c0-3-1.6-6.2-4.9-6.2
			S215,468.2,215,471.6z"/>
		<path class="st12" d="M242.6,471.3c0,5.3-3.2,8.1-7.1,8.1c-4.1,0-6.9-3.1-6.9-7.8c0-4.9,3-8.1,7.1-8.1
			C239.8,463.6,242.6,466.8,242.6,471.3z M230.6,471.6c0,3.3,1.8,6.2,4.9,6.2s4.9-2.9,4.9-6.4c0-3-1.6-6.2-4.9-6.2
			C232.3,465.2,230.6,468.2,230.6,471.6z"/>
		<path class="st12" d="M245.1,479.2V464h2.2l4.9,7.8c1.1,1.8,2,3.4,2.8,5l0,0c-0.2-2-0.2-3.9-0.2-6.3V464h1.9v15.3h-2l-4.9-7.8
			c-1.1-1.7-2.1-3.5-2.9-5.1h-0.1c0.1,1.9,0.2,3.8,0.2,6.3v6.6L245.1,479.2L245.1,479.2z"/>
	</g>
	<g>
		<path class="st12" d="M174.1,461L174.1,461l-2.1,1.1l-0.3-1.2l2.6-1.4h1.3v11.7h-1.5V461z"/>
	</g>
	<g>
		<path class="st12" d="M138.2,458.6v-1l1.2-1.2c3-2.8,4.3-4.4,4.4-6.1c0-1.2-0.6-2.3-2.3-2.3c-1.1,0-1.9,0.5-2.5,1l-0.5-1.1
			c0.8-0.7,2-1.2,3.3-1.2c2.5,0,3.6,1.7,3.6,3.4c0,2.2-1.6,3.9-4,6.3l-0.9,0.9l0,0h5.3v1.3L138.2,458.6L138.2,458.6z"/>
	</g>
	<path class="st12" d="M111,438.4c0.5,0.3,1.5,0.7,2.6,0.7c2,0,2.7-1.3,2.6-2.3c0-1.6-1.5-2.3-3-2.3h-0.9v-1.2h0.9
		c1.2,0,2.6-0.6,2.6-2c0-0.9-0.6-1.8-2.1-1.8c-0.9,0-1.8,0.4-2.3,0.8l-0.4-1.2c0.6-0.5,1.8-0.9,3.1-0.9c2.3,0,3.3,1.4,3.3,2.8
		c0,1.2-0.7,2.2-2.2,2.8l0,0c1.4,0.3,2.6,1.4,2.6,3c0,1.9-1.5,3.5-4.3,3.5c-1.3,0-2.5-0.4-3-0.8L111,438.4z"/>
	<path class="st12" d="M93.7,415.4v-1.7c0-0.4-0.3-0.7-0.7-0.7h-4.7v-1l5-7.2c0.1-0.2,0.4-0.3,0.6-0.3h0.6c0.4,0,0.7,0.3,0.7,0.7
		v5.8c0,0.4,0.3,0.7,0.7,0.7h0.9v1.2H96c-0.4,0-0.7,0.3-0.7,0.7v1.7c0,0.4-0.3,0.7-0.7,0.7l0,0C94.1,416.2,93.7,415.8,93.7,415.4z
		 M93,411.8c0.4,0,0.7-0.3,0.7-0.7v-3.2c0-0.6,0-1.2,0.1-1.8h-0.1c-0.4,0.7-0.6,1.2-1,1.7c0,0,0,0,0,0.1l-2.8,4l0,0H93V411.8z"/>
	<path class="st2" d="M73.8,383.7h-6.7l-0.7,4.5c0.4-0.1,0.8-0.1,1.4-0.1c1.4,0,2.7,0.3,3.8,1c1.4,0.8,2.5,2.3,2.5,4.5
		c0,3.4-2.7,6-6.6,6c-1.9,0-3.6-0.5-4.4-1.1l0.6-1.8c0.7,0.4,2.2,1,3.8,1c2.3,0,4.2-1.5,4.2-3.8s-1.5-3.9-5.1-3.9
		c-1,0-1.8,0.1-2.4,0.2l1.1-8.5h8.4L73.8,383.7L73.8,383.7z"/>
	<path class="st12" d="M54.3,307c-0.3,0-0.7,0-1.2,0.1c-2.5,0.4-3.8,2.2-4.1,4.2h0.1c0.6-0.7,1.5-1.4,2.8-1.4c2.1,0,3.5,1.5,3.5,3.8
		c0,2.1-1.5,4.1-3.9,4.1c-2.5,0-4.1-1.9-4.1-5c0-2.3,0.8-4.1,2-5.3c1-1,2.3-1.5,3.7-1.7c0.5-0.1,0.9-0.1,1.2-0.1V307z M53.8,313.7
		c0-1.7-1-2.7-2.4-2.7c-1,0-1.8,0.6-2.3,1.4c-0.1,0.2-0.2,0.4-0.2,0.7c0,1.9,0.9,3.3,2.6,3.3C52.9,316.5,53.8,315.4,53.8,313.7z"/>
	<path class="st2" d="M58.1,235.7v0.7c0,0.6-0.1,1.2-0.4,1.7L51.6,251c-0.6,1.4-2,2.2-3.5,2.2l0,0l7.6-15.5v-0.1h-8.6v-2h11V235.7z"
		/>
	<path class="st12" d="M75.1,199.8c0-1.5,0.9-2.5,2.3-3.1v-0.1c-1.3-0.6-1.9-1.6-1.9-2.6c0-1.9,1.6-3.1,3.6-3.1
		c2.3,0,3.4,1.4,3.4,2.9c0,1-0.5,2.1-1.9,2.7v0.1c1.5,0.6,2.4,1.6,2.4,3c0,2-1.7,3.4-4,3.4C76.6,203,75.1,201.6,75.1,199.8z
		 M81.4,199.8c0-1.4-1-2.1-2.6-2.6c-1.4,0.4-2.1,1.3-2.1,2.4c-0.1,1.2,0.8,2.2,2.3,2.2C80.5,201.9,81.4,201,81.4,199.8z M77,193.9
		c0,1.2,0.9,1.8,2.2,2.2c1-0.3,1.8-1.1,1.8-2.1c0-0.9-0.6-1.9-2-1.9C77.8,192,77,192.9,77,193.9z"/>
	<path class="st12" d="M103.1,165c0.3,0,0.7,0,1.3-0.1c0.9-0.1,1.8-0.5,2.4-1.1c0.8-0.7,1.3-1.7,1.5-3.1h-0.1
		c-0.6,0.8-1.6,1.3-2.8,1.3c-2.1,0-3.5-1.6-3.5-3.6c0-2.2,1.6-4.2,4-4.2s3.9,1.9,3.9,4.9c0,2.6-0.9,4.4-2,5.5
		c-0.9,0.9-2.1,1.4-3.4,1.6c-0.6,0.1-1.1,0.1-1.5,0.1V165H103.1z M103.7,158.2c0,1.5,0.9,2.5,2.3,2.5c1.1,0,1.9-0.5,2.3-1.2
		c0.1-0.1,0.1-0.3,0.1-0.6c0-2-0.7-3.5-2.4-3.5C104.6,155.4,103.7,156.6,103.7,158.2z"/>
	<path class="st12" d="M135.4,133.1L135.4,133.1l-2.1,1.1L133,133l2.6-1.4h1.3v11.7h-1.5L135.4,133.1L135.4,133.1z"/>
	<path class="st12" d="M148.9,137.3c0,4-1.5,6.2-4.1,6.2c-2.3,0-3.8-2.1-3.9-6c0-3.9,1.7-6.1,4.1-6.1
		C147.5,131.4,148.9,133.6,148.9,137.3z M142.6,137.5c0,3,0.9,4.8,2.4,4.8c1.6,0,2.4-1.9,2.4-4.9c0-2.9-0.7-4.8-2.4-4.8
		C143.6,132.6,142.6,134.3,142.6,137.5z"/>
	<path class="st12" d="M167.7,120.3L167.7,120.3l-2.1,1.1l-0.3-1.2l2.6-1.4h1.3v11.7h-1.5V120.3z"/>
	<path class="st12" d="M177,120.3L177,120.3l-2.1,1.1l-0.3-1.2l2.6-1.4h1.3v11.7H177V120.3z"/>
</g>
<g>
	<path class="st2" d="M711.3,464.3L711.3,464.3l-3,1.6l-0.4-1.7l3.4-1.8c0.2-0.1,0.3-0.1,0.5-0.1h1.7v15.8c0,0.6-0.5,1.1-1.1,1.1
		l0,0c-0.6,0-1.1-0.5-1.1-1.1L711.3,464.3L711.3,464.3z"/>
</g>
<g>
	<path class="st2" d="M281.6,463L281.6,463l-3,1.6l-0.4-1.7l3.4-1.8c0.2-0.1,0.3-0.1,0.5-0.1h1.7v15.8c0,0.6-0.5,1.1-1.1,1.1l0,0
		c-0.6,0-1.1-0.5-1.1-1.1L281.6,463L281.6,463z"/>
</g>
<g>
	<path class="st2" d="M273.3,463L273.3,463l-3,1.6l-0.4-1.7l3.4-1.8c0.2-0.1,0.3-0.1,0.5-0.1h1.7v15.8c0,0.6-0.5,1.1-1.1,1.1l0,0
		c-0.6,0-1.1-0.5-1.1-1.1L273.3,463L273.3,463z"/>
</g>
</svg>
