<?xml version="1.0" encoding="utf-8"?>
<!-- Generator: Adobe Illustrator 22.1.0, SVG Export Plug-In . SVG Version: 6.00 Build 0)  -->
<svg version="1.1" id="Layer_1" xmlns="http://www.w3.org/2000/svg" xmlns:xlink="http://www.w3.org/1999/xlink" x="0px" y="0px"
	 viewBox="0 0 402.4 566.4" style="enable-background:new 0 0 402.4 566.4;" xml:space="preserve">
<style type="text/css">
	.st0{fill:none;stroke:#6F6F6F;stroke-width:7;stroke-linecap:round;stroke-miterlimit:10;}
</style>
<circle class="st0" cx="169" cy="283.2" r="40.5"/>
<line class="st0" x1="169" y1="242.7" x2="169" y2="194.3"/>
<line class="st0" x1="169" y1="213.3" x2="187" y2="198.3"/>
<line class="st0" x1="169" y1="213.3" x2="151" y2="198.3"/>
<line class="st0" x1="140.4" y1="254.6" x2="106.1" y2="220.3"/>
<line class="st0" x1="119.6" y1="233.8" x2="121.7" y2="210.4"/>
<line class="st0" x1="119.6" y1="233.8" x2="96.2" y2="235.9"/>
<line class="st0" x1="128.5" y1="283.2" x2="80.1" y2="283.2"/>
<line class="st0" x1="99.1" y1="283.2" x2="84.1" y2="265.2"/>
<line class="st0" x1="99.1" y1="283.2" x2="84.1" y2="301.2"/>
<line class="st0" x1="140.4" y1="311.8" x2="106.1" y2="346.1"/>
<line class="st0" x1="119.6" y1="332.6" x2="96.2" y2="330.5"/>
<line class="st0" x1="119.6" y1="332.6" x2="121.7" y2="356"/>
<line class="st0" x1="169" y1="323.7" x2="169" y2="372.1"/>
<line class="st0" x1="169" y1="353.1" x2="151" y2="368.1"/>
<line class="st0" x1="169" y1="353.1" x2="187" y2="368.1"/>
<line class="st0" x1="197.6" y1="311.8" x2="231.9" y2="346.1"/>
<line class="st0" x1="218.4" y1="332.6" x2="216.3" y2="356"/>
<line class="st0" x1="218.4" y1="332.6" x2="241.8" y2="330.5"/>
<line class="st0" x1="209.5" y1="283.2" x2="257.9" y2="283.2"/>
<line class="st0" x1="238.9" y1="283.2" x2="253.9" y2="301.2"/>
<line class="st0" x1="238.9" y1="283.2" x2="253.9" y2="265.2"/>
<line class="st0" x1="197.6" y1="254.6" x2="231.9" y2="220.3"/>
<line class="st0" x1="218.4" y1="233.8" x2="241.8" y2="235.9"/>
<line class="st0" x1="218.4" y1="233.8" x2="216.3" y2="210.4"/>
</svg>
