<svg xmlns="http://www.w3.org/2000/svg" viewBox="0 0 134.9 36.8"><defs><style>.cls-1{fill:none;stroke:#6f6f6f;stroke-linecap:round;stroke-miterlimit:10;stroke-width:2.2px;}.cls-2{fill:#6f6f6f;}.cls-3{fill:#807f80;}</style></defs><title>sunAsset 2</title><g id="Layer_2" data-name="Layer 2"><g id="Layer_1-2" data-name="Layer 1"><g id="Layer_1-3" data-name="Layer 1"><circle class="cls-1" cx="18.36" cy="18.36" r="8.45"/><line class="cls-1" x1="18.36" y1="6.9" x2="18.36" y2="1.1"/><line class="cls-1" x1="12.63" y1="8.45" x2="9.77" y2="3.45"/><line class="cls-1" x1="8.37" y1="12.63" x2="3.38" y2="9.77"/><line class="cls-1" x1="6.83" y1="18.44" x2="1.1" y2="18.44"/><line class="cls-1" x1="8.37" y1="24.17" x2="3.38" y2="27.03"/><line class="cls-1" x1="12.63" y1="28.35" x2="9.7" y2="33.42"/><line class="cls-1" x1="18.36" y1="29.9" x2="18.36" y2="35.7"/><line class="cls-1" x1="24.09" y1="28.43" x2="27.03" y2="33.42"/><line class="cls-1" x1="28.35" y1="24.17" x2="33.35" y2="27.03"/><line class="cls-1" x1="29.9" y1="18.44" x2="35.7" y2="18.44"/><line class="cls-1" x1="28.35" y1="12.63" x2="33.35" y2="9.77"/><line class="cls-1" x1="24.17" y1="8.45" x2="27.03" y2="3.45"/><path class="cls-2" d="M50.7,12.1a2.77,2.77,0,0,1-.5,1.6,3.14,3.14,0,0,1-1.4,1.1,6.54,6.54,0,0,1-2.1.4,4.27,4.27,0,0,1-2.4-.6,2.91,2.91,0,0,1-1.1-1.1,2.2,2.2,0,0,1-.4-1.3.71.71,0,0,1,.3-.6.91.91,0,0,1,.7-.3.76.76,0,0,1,.5.2,1.54,1.54,0,0,1,.4.6,5.94,5.94,0,0,0,.4.8,1.47,1.47,0,0,0,.6.5,3.09,3.09,0,0,0,1.1.2,2.41,2.41,0,0,0,1.5-.4,1.22,1.22,0,0,0,.6-1,1.14,1.14,0,0,0-.3-.8,2.18,2.18,0,0,0-.8-.5,13,13,0,0,0-1.3-.3,18.88,18.88,0,0,1-1.8-.6,2.73,2.73,0,0,1-1.2-.9,2.41,2.41,0,0,1-.4-1.5,2.69,2.69,0,0,1,.5-1.5,2.21,2.21,0,0,1,1.3-1,6,6,0,0,1,2-.3,7.77,7.77,0,0,1,1.6.2,10.91,10.91,0,0,1,1.1.6,2.1,2.1,0,0,1,.6.8,2.35,2.35,0,0,1,.2.8,1.08,1.08,0,0,1-.3.7.86.86,0,0,1-.6.3A.76.76,0,0,1,49,8a1.54,1.54,0,0,1-.4-.6,2.18,2.18,0,0,0-.7-.9,2.13,2.13,0,0,0-1.2-.3,2.77,2.77,0,0,0-1.3.3,1,1,0,0,0-.5.8.76.76,0,0,0,.2.5,2.18,2.18,0,0,0,.5.4,1.42,1.42,0,0,0,.6.2,3.26,3.26,0,0,1,1,.3,15.46,15.46,0,0,1,1.5.4,6.72,6.72,0,0,1,1.2.6,1.76,1.76,0,0,1,.8.9A7.5,7.5,0,0,0,50.7,12.1Z"/><path class="cls-2" d="M52.4,11V6.2a1.22,1.22,0,0,1,.3-.9.91.91,0,0,1,.7-.3.78.78,0,0,1,.7.3,1.9,1.9,0,0,1,.3.9v4.9a5.21,5.21,0,0,0,.2,1.4,1.27,1.27,0,0,0,.7.9,2.5,2.5,0,0,0,1.3.3,2.06,2.06,0,0,0,1.7-.6,3.31,3.31,0,0,0,.5-1.9v-5a1.22,1.22,0,0,1,.3-.9.91.91,0,0,1,.7-.3.78.78,0,0,1,.7.3,1.22,1.22,0,0,1,.3.9V11a11.24,11.24,0,0,1-.2,2,2.16,2.16,0,0,1-.9,1.4,3.29,3.29,0,0,1-1.3.7,7.93,7.93,0,0,1-1.7.2,11.24,11.24,0,0,1-2-.2,3.22,3.22,0,0,1-1.4-.8,2.87,2.87,0,0,1-.8-1.3C52.5,12.4,52.4,11.7,52.4,11Z"/><path class="cls-2" d="M66.4,13.6,64.8,7.2v6.9a1.22,1.22,0,0,1-.3.9,1,1,0,0,1-1.4,0,1.22,1.22,0,0,1-.3-.9V6.2a1.22,1.22,0,0,1,.3-.9c.2-.2.5-.2.9-.2h.6c.4,0,.7,0,.8.1s.3.2.4.4a4.65,4.65,0,0,1,.3.9L67.6,12l1.5-5.5a4.65,4.65,0,0,1,.3-.9.78.78,0,0,1,.4-.4,1.72,1.72,0,0,1,.8-.1h.6a2,2,0,0,1,.9.2,1.08,1.08,0,0,1,.3.9v7.9a1.22,1.22,0,0,1-.3.9,1,1,0,0,1-1.4,0,1.22,1.22,0,0,1-.3-.9V7.2l-1.6,6.4a4.65,4.65,0,0,1-.3.9,1,1,0,0,1-.4.5,1.45,1.45,0,0,1-.7.2,1.42,1.42,0,0,1-.6-.2.78.78,0,0,1-.4-.4c-.1-.2-.2-.3-.2-.5C66.5,14,66.5,13.8,66.4,13.6Z"/><path class="cls-2" d="M78.1,13.6,76.5,7.2v6.9a1.22,1.22,0,0,1-.3.9,1,1,0,0,1-1.4,0,1.22,1.22,0,0,1-.3-.9V6.2a1.22,1.22,0,0,1,.3-.9c.2-.2.5-.2.9-.2h.6c.4,0,.7,0,.8.1s.3.2.4.4a4.65,4.65,0,0,1,.3.9L79.3,12l1.5-5.5a4.65,4.65,0,0,1,.3-.9.78.78,0,0,1,.4-.4,1.72,1.72,0,0,1,.8-.1h.6a2,2,0,0,1,.9.2,1.08,1.08,0,0,1,.3.9v7.9a1.22,1.22,0,0,1-.3.9,1,1,0,0,1-1.4,0,1.22,1.22,0,0,1-.3-.9V7.2l-1.6,6.4a4.65,4.65,0,0,1-.3.9,1,1,0,0,1-.4.5,1.45,1.45,0,0,1-.7.2,1.42,1.42,0,0,1-.6-.2.78.78,0,0,1-.4-.4c-.1-.2-.2-.3-.2-.5C78.2,14,78.1,13.8,78.1,13.6Z"/><path class="cls-2" d="M92.9,6.7H88.3V9.2h4.2a1.45,1.45,0,0,1,.7.2c.2.1.2.3.2.6a1.07,1.07,0,0,1-.2.6,1.45,1.45,0,0,1-.7.2H88.3v2.9H93a1.17,1.17,0,0,1,.7.2c.2.1.2.3.2.6a1.42,1.42,0,0,1-.2.6,1.45,1.45,0,0,1-.7.2H87.5a1.49,1.49,0,0,1-1-.3,1.33,1.33,0,0,1-.3-1V6.5a1.48,1.48,0,0,1,.1-.7.78.78,0,0,1,.4-.4,1.48,1.48,0,0,1,.7-.1h5.4a1.17,1.17,0,0,1,.7.2c.2.1.2.3.2.6a1.42,1.42,0,0,1-.2.6C93.5,6.6,93.3,6.7,92.9,6.7Z"/><path class="cls-2" d="M98.4,10.8h-.7V14a1.22,1.22,0,0,1-.3.9.91.91,0,0,1-.7.3,1.14,1.14,0,0,1-.8-.3,1.22,1.22,0,0,1-.3-.9V6.3a1.49,1.49,0,0,1,.3-1,1.33,1.33,0,0,1,1-.3h3.3a4.48,4.48,0,0,1,1.2.1,2.92,2.92,0,0,1,.9.2,1.56,1.56,0,0,1,.8.6,7,7,0,0,1,.6.9,3.55,3.55,0,0,1,.2,1,2.79,2.79,0,0,1-.6,1.8,3.47,3.47,0,0,1-1.9,1,3.92,3.92,0,0,1,1,.8,12.49,12.49,0,0,1,.9,1.2,4.49,4.49,0,0,1,.8,1.8.6.6,0,0,1-.1.4l-.3.3a.75.75,0,0,1-.5.1,1.42,1.42,0,0,1-.6-.2.78.78,0,0,1-.4-.4c-.1-.2-.3-.4-.5-.7l-.8-1.4a6.29,6.29,0,0,0-.8-1.1,3,3,0,0,0-.7-.5A2.79,2.79,0,0,0,98.4,10.8Zm1.2-4.2H97.7V9.4h1.8a4.12,4.12,0,0,0,1.2-.1,2,2,0,0,0,.8-.4,1.14,1.14,0,0,0,.3-.8,1.45,1.45,0,0,0-.2-.7,1,1,0,0,0-.6-.5A2.42,2.42,0,0,0,99.6,6.6Z"/><path class="cls-3" d="M46.4,30.4,44.8,24v6.9a1.22,1.22,0,0,1-.3.9,1,1,0,0,1-1.4,0,1.22,1.22,0,0,1-.3-.9V23a1.22,1.22,0,0,1,.3-.9c.2-.2.5-.2.9-.2h.6c.4,0,.7,0,.8.1s.3.2.4.4a4.65,4.65,0,0,1,.3.9l1.5,5.5,1.5-5.5a4.65,4.65,0,0,1,.3-.9.78.78,0,0,1,.4-.4,1.72,1.72,0,0,1,.8-.1h.6a2,2,0,0,1,.9.2,1.08,1.08,0,0,1,.3.9v7.9a1.22,1.22,0,0,1-.3.9,1,1,0,0,1-1.4,0,1.22,1.22,0,0,1-.3-.9V24l-1.6,6.4a4.65,4.65,0,0,1-.3.9,1,1,0,0,1-.4.5,1.45,1.45,0,0,1-.7.2,1.42,1.42,0,0,1-.6-.2.78.78,0,0,1-.4-.4c-.1-.2-.2-.3-.2-.5C46.5,30.8,46.5,30.6,46.4,30.4Z"/><path class="cls-3" d="M59.3,31a6.55,6.55,0,0,1-1.3.8,3.19,3.19,0,0,1-1.4.3,2.77,2.77,0,0,1-1.3-.3,1.56,1.56,0,0,1-.8-.8,2.28,2.28,0,0,1-.3-1.1,2.06,2.06,0,0,1,1.8-2c.1,0,.4-.1.9-.2a10.38,10.38,0,0,0,1.2-.3c.3-.1.7-.2,1.1-.3a1.61,1.61,0,0,0-.3-1.1,1.44,1.44,0,0,0-1.1-.3,3.09,3.09,0,0,0-1.1.2c-.3.1-.4.3-.6.6a2.74,2.74,0,0,1-.4.5c-.1.1-.2.1-.5.1a.76.76,0,0,1-.5-.2c-.2-.1-.2-.3-.2-.5a2.24,2.24,0,0,1,.3-1,1.88,1.88,0,0,1,1.1-.8,4.84,4.84,0,0,1,1.8-.3,4.7,4.7,0,0,1,1.9.3,1.79,1.79,0,0,1,1,.9,4,4,0,0,1,.3,1.7v2.1a4.25,4.25,0,0,0,.2,1.1c.1.4.2.6.2.7a.55.55,0,0,1-.3.5.73.73,0,0,1-.6.2.86.86,0,0,1-.6-.3C59.7,31.7,59.5,31.4,59.3,31Zm-.1-2.7a10.38,10.38,0,0,1-1.2.3,8.92,8.92,0,0,1-1.1.2l-.6.3a.86.86,0,0,0-.3.6.91.91,0,0,0,.3.7,1.14,1.14,0,0,0,.8.3,3,3,0,0,0,1-.2,4.35,4.35,0,0,0,.7-.6,2.42,2.42,0,0,0,.3-1.4v-.2Z"/><path class="cls-3" d="M64.4,32.3l.2-.4-2.3-5.8a4.08,4.08,0,0,1-.2-.7c0-.2,0-.3.1-.4l.3-.3a.78.78,0,0,1,1,.2,4.35,4.35,0,0,1,.4.7l1.6,4.6L67,25.9a6.89,6.89,0,0,1,.3-.8,1.38,1.38,0,0,1,.3-.4.75.75,0,0,1,.5-.1.6.6,0,0,1,.4.1l.3.3a.6.6,0,0,1,.1.4.76.76,0,0,1-.1.4c-.1.2-.1.3-.2.5l-2.4,6.4a5.35,5.35,0,0,1-.6,1.3,1.78,1.78,0,0,1-.8.7,2.5,2.5,0,0,1-1.3.3,3.26,3.26,0,0,1-1.2-.2.68.68,0,0,1-.4-.6.76.76,0,0,1,.2-.5.85.85,0,0,1,.6-.2h.6a.75.75,0,0,0,.5-.1l.3-.3A6.89,6.89,0,0,0,64.4,32.3Z"/><path class="cls-3" d="M76.8,31V24.8a5.43,5.43,0,0,1-2.3,1.3.76.76,0,0,1-.5-.2c-.1-.2-.2-.3-.2-.5a.76.76,0,0,1,.2-.5,1.91,1.91,0,0,1,.8-.4,4.89,4.89,0,0,0,1.3-.8,9,9,0,0,0,.9-1c.3-.4.4-.6.5-.7s.2-.1.4-.1a.86.86,0,0,1,.6.3c.2.2.2.4.2.8v7.8c0,.9-.3,1.4-.9,1.4a.91.91,0,0,1-.7-.3A1.22,1.22,0,0,1,76.8,31Z"/><path class="cls-3" d="M88.1,29.1H85.9a1.17,1.17,0,0,1-.7-.2.86.86,0,0,1-.3-.6,1.42,1.42,0,0,1,.2-.6c.2-.2.4-.2.8-.2h2.2a1.88,1.88,0,0,1,.8.2.73.73,0,0,1,.2.6,1.42,1.42,0,0,1-.2.6A1.88,1.88,0,0,1,88.1,29.1Z"/><path class="cls-3" d="M98.3,21.7a6,6,0,0,1,2.7.6,4.24,4.24,0,0,1,1.7,1.8,6,6,0,0,1,.6,2.7,6.65,6.65,0,0,1-.3,2.1,4.17,4.17,0,0,1-.9,1.6,5.83,5.83,0,0,1-1.5,1.1,5.71,5.71,0,0,1-4.2,0,5.72,5.72,0,0,1-1.6-1.1,3.5,3.5,0,0,1-.9-1.7,7.11,7.11,0,0,1-.3-2.1,6.65,6.65,0,0,1,.3-2.1,3.36,3.36,0,0,1,1-1.6,4.92,4.92,0,0,1,1.5-1A9.47,9.47,0,0,1,98.3,21.7Zm2.9,5.2a3.81,3.81,0,0,0-.4-1.9,4,4,0,0,0-1-1.2,2.41,2.41,0,0,0-1.5-.4,3.59,3.59,0,0,0-1.1.2,5.5,5.5,0,0,0-.9.7,3.88,3.88,0,0,0-.6,1.1,7.72,7.72,0,0,0-.2,1.5,6.05,6.05,0,0,0,.2,1.5,2.38,2.38,0,0,0,.6,1.1,5.5,5.5,0,0,0,.9.7,2,2,0,0,0,1.1.2,2.3,2.3,0,0,0,1.4-.4,2.94,2.94,0,0,0,1-1.2A4.78,4.78,0,0,0,101.2,26.9Z"/><path class="cls-3" d="M111.6,29.8a1.85,1.85,0,0,1-.2.7c-.1.2-.4.5-.6.8a5.42,5.42,0,0,1-1.1.6,3.64,3.64,0,0,1-1.5.2,3.34,3.34,0,0,1-2.7-1,4.06,4.06,0,0,1-1-2.7,4.21,4.21,0,0,1,.4-2,3.48,3.48,0,0,1,1.3-1.4,4.23,4.23,0,0,1,2-.5,5.07,5.07,0,0,1,1.3.2,3.13,3.13,0,0,1,1,.5,1.87,1.87,0,0,1,.6.7,2.54,2.54,0,0,1,.2.7,1.42,1.42,0,0,1-.2.6c-.1.2-.4.2-.6.2s-.3,0-.4-.1a1.38,1.38,0,0,1-.3-.4,5.72,5.72,0,0,0-.7-.8,1.4,1.4,0,0,0-.9-.3,1.49,1.49,0,0,0-1.3.6,3,3,0,0,0-.5,1.8,3.08,3.08,0,0,0,.1,1,3,3,0,0,0,.4.8,2.65,2.65,0,0,0,.6.5,1.88,1.88,0,0,0,.8.2,1.69,1.69,0,0,0,1-.3,1.85,1.85,0,0,0,.7-.8,1,1,0,0,1,.4-.5c.2-.1.3-.2.5-.2a.86.86,0,0,1,.6.3C111.7,29.4,111.6,29.6,111.6,29.8Z"/><path class="cls-3" d="M113.3,24.7h.2V22.9c0-.2.1-.3.1-.4l.3-.3a.75.75,0,0,1,.5-.1.71.71,0,0,1,.6.3.76.76,0,0,1,.2.4c0,.2.1.4.1.7v1.3h.7a.85.85,0,0,1,.6.2.76.76,0,0,1,.2.5.46.46,0,0,1-.3.5,2,2,0,0,1-.9.2h-.3v4.1a.52.52,0,0,0,.2.4c.1.1.2.1.4.1a.6.6,0,0,0,.4-.1c.2,0,.3-.1.4-.1a.52.52,0,0,1,.4.2.76.76,0,0,1,.2.4c0,.3-.2.5-.5.7a2.76,2.76,0,0,1-1.4.2,2.27,2.27,0,0,1-1.3-.3,1.56,1.56,0,0,1-.6-.8,5.31,5.31,0,0,1-.1-1.4V26h-.2a.85.85,0,0,1-.6-.2.73.73,0,0,1,0-1A1.48,1.48,0,0,1,113.3,24.7Z"/><path class="cls-3" d="M124.5,25.9a1.5,1.5,0,0,0,1.1-.4,1.43,1.43,0,0,0,.5-1.1,1,1,0,0,0-.4-.9,1.16,1.16,0,0,0-1-.4,1.48,1.48,0,0,0-.7.1,1.38,1.38,0,0,0-.4.3,2.19,2.19,0,0,0-.3.5l-.3.6a.22.22,0,0,1-.2.2c-.1,0-.3.1-.4.1s-.3-.1-.5-.2-.2-.3-.2-.6a1.85,1.85,0,0,1,.2-.7c.1-.3.4-.5.6-.7a4.37,4.37,0,0,1,1-.6,5.9,5.9,0,0,1,1.4-.2,5,5,0,0,1,1.2.2,3.13,3.13,0,0,1,1,.5,1.56,1.56,0,0,1,.6.8,3,3,0,0,1,.2,1,2.38,2.38,0,0,1-.3,1.2,7.3,7.3,0,0,1-.9,1,2.18,2.18,0,0,1,.9.7c.2.3.4.5.6.8a3,3,0,0,1,.2,1,5,5,0,0,1-.2,1.2,2.29,2.29,0,0,1-.7,1,3.46,3.46,0,0,1-1.2.7,3.34,3.34,0,0,1-1.5.3,4,4,0,0,1-1.5-.3,3,3,0,0,1-1.1-.7,2.36,2.36,0,0,1-.6-.9,3.09,3.09,0,0,1-.2-.8.6.6,0,0,1,.3-.6.73.73,0,0,1,.6-.2.6.6,0,0,1,.4.1c.1.1.2.2.2.3a3.69,3.69,0,0,0,.8,1.4,1.61,1.61,0,0,0,1.1.5,1.88,1.88,0,0,0,.8-.2.9.9,0,0,0,.6-.6,2.93,2.93,0,0,0,.3-1,1.84,1.84,0,0,0-.4-1.3,1.66,1.66,0,0,0-1.2-.5h-.8a1.07,1.07,0,0,1-.6-.2.72.72,0,0,1,0-1,1.45,1.45,0,0,1,.7-.2h.3Z"/><path class="cls-3" d="M133,31V24.8a5.43,5.43,0,0,1-2.3,1.3.76.76,0,0,1-.5-.2c-.1-.2-.2-.3-.2-.5a.76.76,0,0,1,.2-.5,1.91,1.91,0,0,1,.8-.4,4.89,4.89,0,0,0,1.3-.8,9,9,0,0,0,.9-1c.3-.4.4-.6.5-.7s.2-.1.4-.1a.86.86,0,0,1,.6.3c.2.2.2.4.2.8v7.8c0,.9-.3,1.4-.9,1.4a.91.91,0,0,1-.7-.3A1.22,1.22,0,0,1,133,31Z"/></g></g></g></svg>