<svg xmlns="http://www.w3.org/2000/svg" viewBox="0 0 303 48.2"><defs><style>.cls-1{fill:none;stroke:#f26739;stroke-width:3px;}.cls-1,.cls-3{stroke-miterlimit:10;}.cls-2{isolation:isolate;}.cls-3{fill:#525353;stroke:#525353;stroke-linecap:round;}</style></defs><title>sunAsset 1</title><g id="Layer_2" data-name="Layer 2"><g id="Layer_1-2" data-name="Layer 1"><path class="cls-1" d="M301.5,48.17s.6-38-33.1-38H213.9"/><path class="cls-1" d="M89.1,10.17H34.6c-33.7,0-33.1,38-33.1,38"/><g class="cls-2"><path class="cls-3" d="M98.6,19.47,94.8.87h1.9l2.2,12.2c.2,1.3.4,2.6.6,3.8.4-2,.6-3.1.6-3.4L102.8.87h2.3l2,9.4a56.74,56.74,0,0,1,1.1,6.6c.2-1.2.4-2.5.7-4.1l2.2-12H113l-3.9,18.6h-1.8l-3-14.2a11.22,11.22,0,0,1-.4-2.2c-.1.9-.3,1.6-.4,2.2l-3,14.2H98.6Z"/><path class="cls-3" d="M115,19.47V.87h10.3v2.2h-8.5v5.7h7.9V11h-7.9v6.3h8.8v2.2Z"/><path class="cls-3" d="M128.3,19.47V.87h10.4v2.2h-8.5v5.7h7.9V11h-7.9v6.3H139v2.2Z"/><path class="cls-3" d="M141.6,19.47V.87h1.9v9.2l7.1-9.2h2.6l-6,7.6,6.3,11.1H151l-5.1-9.4-2.3,3v6.5h-2Z"/><path class="cls-3" d="M155,19.47V.87h4.9a7.65,7.65,0,0,1,2.5.3,4.65,4.65,0,0,1,2.1,1.3,7.54,7.54,0,0,1,1.7,3.2,15.1,15.1,0,0,1,.6,4.4,14.78,14.78,0,0,1-.4,3.8,11.83,11.83,0,0,1-1,2.7,5.86,5.86,0,0,1-1.3,1.7,4.61,4.61,0,0,1-1.7.9,8,8,0,0,1-2.3.3Zm1.9-2.2H160a6.46,6.46,0,0,0,2.2-.3,3.25,3.25,0,0,0,1.3-1,6.67,6.67,0,0,0,1-2.4,12.77,12.77,0,0,0,.4-3.6,11.17,11.17,0,0,0-.7-4.5,4.77,4.77,0,0,0-1.8-2.1A4.94,4.94,0,0,0,160,3h-3v14.3Z"/><path class="cls-3" d="M167.8,19.47,173.3.87h2l5.9,18.6H179l-1.7-5.6h-6l-1.6,5.6Zm4.2-7.6h4.8l-1.5-5.2a37.62,37.62,0,0,1-1-3.9,23.25,23.25,0,0,1-.8,3.6Z"/><path class="cls-3" d="M185.3,19.47v-7.9L179.8.87h2.3l2.8,5.6c.5,1.1,1,2.1,1.5,3.2a24.48,24.48,0,0,1,1.6-3.3l2.8-5.5H193l-5.7,10.7v7.9Z"/><path class="cls-3" d="M193.9,13.47l1.8-.2a7,7,0,0,0,.6,2.3,3.16,3.16,0,0,0,1.4,1.4,4.28,4.28,0,0,0,2.2.6,3.81,3.81,0,0,0,1.9-.4A2.33,2.33,0,0,0,203,16a2.93,2.93,0,0,0,.4-1.6,2.41,2.41,0,0,0-.4-1.5,3.61,3.61,0,0,0-1.3-1.1,18.85,18.85,0,0,0-2.5-.9,11,11,0,0,1-2.8-1.2A4,4,0,0,1,194.9,8a5.93,5.93,0,0,1-.5-2.3,5.83,5.83,0,0,1,.6-2.6,4.69,4.69,0,0,1,1.8-1.9,5.83,5.83,0,0,1,2.6-.6,5.07,5.07,0,0,1,2.8.7,4.61,4.61,0,0,1,1.9,2,6.89,6.89,0,0,1,.7,2.9l-1.8.2a4.17,4.17,0,0,0-1-2.7,3.33,3.33,0,0,0-2.5-.9,3.56,3.56,0,0,0-2.5.8,2.79,2.79,0,0,0-.8,2,2.52,2.52,0,0,0,.6,1.7,6.51,6.51,0,0,0,2.9,1.3,29.05,29.05,0,0,1,3.2,1.2,4.69,4.69,0,0,1,1.8,1.9,6,6,0,0,1,.6,2.7,5.55,5.55,0,0,1-.7,2.8,4.12,4.12,0,0,1-1.9,2,5.07,5.07,0,0,1-2.8.7,6.71,6.71,0,0,1-3.3-.7,5,5,0,0,1-2.1-2.2A18.22,18.22,0,0,1,193.9,13.47Z"/></g></g></g></svg>