<svg xmlns="http://www.w3.org/2000/svg" viewBox="0 0 360.91 381.15"><defs><style>.cls-1{fill:#99ca3d;}.cls-2,.cls-6,.cls-7{fill:none;}.cls-3,.cls-4,.cls-5,.cls-6,.cls-7{isolation:isolate;}.cls-4,.cls-5,.cls-6,.cls-7{font-size:34px;font-family:ArialMT, Arial;}.cls-4,.cls-5{fill:#fff;}.cls-4,.cls-6{letter-spacing:-0.15em;}.cls-6,.cls-7{stroke:#fff;stroke-width:0.25px;}.cls-10,.cls-11,.cls-8,.cls-9{fill:#6f6f6f;}.cls-9{font-size:18.44px;}.cls-10,.cls-11,.cls-9{font-family:MyriadPro-Regular, Myriad Pro;}.cls-10{font-size:17.43px;}.cls-11{font-size:17.52px;}</style></defs><title>sunAsset 1</title><g id="Layer_2" data-name="Layer 2"><g id="Layer_1-2" data-name="Layer 1"><g id="Layer_2-2" data-name="Layer 2"><g id="Layer_1-2-2" data-name="Layer 1-2"><g id="Layer_1-3" data-name="Layer 1-3"><circle class="cls-1" cx="179.68" cy="198.13" r="158.47"/><rect class="cls-2" x="40.2" y="189.8" width="71.7" height="31.3"/><g class="cls-3"><text class="cls-4" transform="translate(40.17 213.89)">P</text><text class="cls-5" transform="translate(58.46 213.89)">.M.</text></g><g class="cls-3"><text class="cls-6" transform="translate(40.17 213.89)">P</text><text class="cls-7" transform="translate(58.46 213.89)">.M.</text></g><rect class="cls-2" x="253" y="189.8" width="79.6" height="31.3"/><text class="cls-5" transform="translate(252.94 213.89)">A.M.</text><text class="cls-7" transform="translate(252.94 213.89)">A.M.</text></g><g id="Layer_2-2-2" data-name="Layer 2-2"><path class="cls-8" d="M233.3,25h0l-2.1,1.1-.3-1.2,2.4-1.3c.1-.1.2-.1.4-.1h1.2V34.4a.78.78,0,0,1-.78.8h0a.79.79,0,0,1-.8-.78V25Z"/><path class="cls-8" d="M147.4,9c-.1-2.2-.3-4.8-.2-6.8h-.1c-.5,1.8-1.2,3.8-2,6l-2.8,7.6h-1.5l-2.5-7.5c-.7-2.2-1.4-4.2-1.8-6.1h0c0,2-.2,4.6-.3,6.9l-.4,6.7h-1.9L135,.1h2.6l2.7,7.6a49.65,49.65,0,0,1,1.6,5.3h.1c.4-1.6,1-3.3,1.7-5.3L146.5.1h2.6l1,15.7h-2Z"/><path class="cls-8" d="M154.9.2V15.9h-2V.2Z"/><path class="cls-8" d="M158.5.4a28.26,28.26,0,0,1,4.3-.3c2.9,0,5,.7,6.4,2a7.18,7.18,0,0,1,2.2,5.6,8,8,0,0,1-2.3,6.1c-1.5,1.5-3.9,2.3-6.9,2.3-1.4,0-2.7-.1-3.7-.2Zm2,13.9a12.31,12.31,0,0,0,2.1.1c4.3,0,6.7-2.4,6.7-6.7,0-3.7-2.1-6.1-6.4-6.1a15,15,0,0,0-2.4.2V14.3Z"/><path class="cls-8" d="M174,15.9V.2h2.2l5,8a32.42,32.42,0,0,1,2.8,5.1h0c-.2-2.1-.2-4-.2-6.5V.2h1.9V15.9h-2.1l-5-8a46.3,46.3,0,0,1-2.9-5.2h-.1c.1,2,.2,3.9.2,6.5v6.7Z"/><path class="cls-8" d="M191.4.2V15.9h-2V.2Z"/><path class="cls-8" d="M206.9,15.2a15.11,15.11,0,0,1-4.8.9,8.09,8.09,0,0,1-5.9-2.1A8,8,0,0,1,194,8.1c0-4.7,3.2-8.1,8.5-8.1a10.36,10.36,0,0,1,3.9.7l-.5,1.7a7.78,7.78,0,0,0-3.5-.7c-3.8,0-6.3,2.4-6.3,6.3s2.4,6.3,6.1,6.3a7.47,7.47,0,0,0,2.7-.4V9.2h-3.2V7.7h5.2Z"/><path class="cls-8" d="M212,.2V6.8h7.6V.2h2.1V15.9h-2.1V8.5H212v7.4h-2V.2Z"/><path class="cls-8" d="M228.1,1.9h-4.8V.2h11.6V1.9h-4.7v14h-2.1Z"/><path class="cls-8" d="M270.3,51.3v-1l1.2-1.2c3-2.8,4.3-4.4,4.4-6.1A2.1,2.1,0,0,0,274,40.7a3.09,3.09,0,0,0-.43,0,3.88,3.88,0,0,0-2.5,1l-.5-1.1a5.13,5.13,0,0,1,3.3-1.2,3.29,3.29,0,0,1,3.59,3,1.86,1.86,0,0,1,0,.41c0,2.2-1.6,3.9-4,6.3l-.9.9h5.3v1.3Z"/><path class="cls-8" d="M306.7,78.1a5.41,5.41,0,0,0,2.6.7c2,0,2.7-1.3,2.6-2.3,0-1.6-1.5-2.3-3-2.3H308V73h.9c1.2,0,2.6-.6,2.6-2,0-.9-.6-1.8-2.1-1.8a4,4,0,0,0-2.3.8l-.4-1.2a6,6,0,0,1,3.1-.9c2.3,0,3.3,1.4,3.3,2.8a3,3,0,0,1-2.2,2.8h0a3.11,3.11,0,0,1,2.6,3c0,1.9-1.5,3.5-4.3,3.5a5.41,5.41,0,0,1-3-.8Z"/><path class="cls-8" d="M337.4,116.4v-3.2H332v-1l5.2-7.5h1.7V112h1.6v1.2h-1.6v3.2Zm0-4.4v-3.9a12.07,12.07,0,0,1,.1-1.8h-.1a11.65,11.65,0,0,1-1,1.7l-2.9,4Z"/><path class="cls-8" d="M355.4,147h-4.5l-.5,3c.3,0,.5-.1,1-.1a5.13,5.13,0,0,1,2.5.6,3.31,3.31,0,0,1,1.7,3c0,2.3-1.8,4-4.4,4a6.15,6.15,0,0,1-2.9-.7l.4-1.2a5.07,5.07,0,0,0,2.5.6,2.61,2.61,0,0,0,2.8-2.41v-.09c0-1.5-1-2.6-3.4-2.6-.7,0-1.2.1-1.6.1l.8-5.6h5.6Z"/><path class="cls-8" d="M359.8,192.7a6.08,6.08,0,0,0-1.2.1,4.76,4.76,0,0,0-4.1,4.2h.1a3.67,3.67,0,0,1,2.8-1.4c2.1,0,3.5,1.5,3.5,3.8a4,4,0,0,1-3.89,4.1h0c-2.5,0-4.1-1.9-4.1-5a7.34,7.34,0,0,1,2-5.3,6.4,6.4,0,0,1,3.7-1.7,6.08,6.08,0,0,1,1.2-.1Zm-.5,6.7a2.4,2.4,0,0,0-2.08-2.68l-.32,0a2.74,2.74,0,0,0-2.3,1.4,1.53,1.53,0,0,0-.2.7c0,1.9.9,3.3,2.6,3.3C358.4,202.2,359.3,201.1,359.3,199.4Z"/><path class="cls-8" d="M331,285.4a3.31,3.31,0,0,1,2.3-3.1v-.1a2.93,2.93,0,0,1-1.9-2.6c0-1.9,1.6-3.1,3.6-3.1,2.3,0,3.4,1.4,3.4,2.9a2.87,2.87,0,0,1-1.9,2.7v.1a3.25,3.25,0,0,1,2.4,3c0,2-1.7,3.4-4,3.4S331,287.2,331,285.4Zm6.3,0c0-1.4-1-2.1-2.6-2.6a2.52,2.52,0,0,0-2.1,2.4,2.09,2.09,0,0,0,1.93,2.21,1.53,1.53,0,0,0,.37,0,2,2,0,0,0,2.36-1.56,1.6,1.6,0,0,0,0-.44Zm-4.3-5.9c0,1.2.9,1.8,2.2,2.2a2.32,2.32,0,0,0,1.8-2.1,1.84,1.84,0,0,0-1.81-1.9H335a1.75,1.75,0,0,0-2,1.46C333,279.27,333,279.39,333,279.5Z"/><path class="cls-8" d="M306.9,321.6a7,7,0,0,0,1.3-.1,4.07,4.07,0,0,0,2.4-1.1,4.79,4.79,0,0,0,1.5-3.1h.1a3.54,3.54,0,0,1-5,.51A3.59,3.59,0,0,1,305.9,315a4.07,4.07,0,0,1,3.9-4.2h.1c2.4,0,3.9,1.9,3.9,4.9a7.54,7.54,0,0,1-2,5.5,6,6,0,0,1-3.4,1.6,8.28,8.28,0,0,1-1.5.1Zm.6-6.7a2.27,2.27,0,0,0,2,2.49h.29a2.53,2.53,0,0,0,2.3-1.2c.1-.1.1-.3.1-.6,0-2-.7-3.5-2.4-3.5-1.3-.1-2.3,1.1-2.3,2.8Z"/><path class="cls-8" d="M270.4,340.7h0l-2.1,1.1-.3-1.2,2.6-1.4h1.3v11.7h-1.5Z"/><path class="cls-8" d="M284,344.9c0,4-1.5,6.2-4.1,6.2-2.3,0-3.8-2.1-3.9-6s1.7-6.1,4.1-6.1S284,341.2,284,344.9Zm-6.4.2c0,3,.9,4.8,2.4,4.8s2.4-1.9,2.4-4.9-.7-4.8-2.4-4.8C278.6,340.2,277.6,341.9,277.6,345.1Z"/><path class="cls-8" d="M150.5,381V365.7h2.2l4.9,7.8c1.1,1.8,2,3.4,2.8,5h0c-.17-2.09-.23-4.2-.2-6.3v-6.4h1.9v15.3h-2l-4.9-7.8a58.22,58.22,0,0,1-2.9-5.1h-.1c.1,1.9.2,3.8.2,6.3v6.6h-1.9Z"/><path class="cls-8" d="M178.6,373.05c0,5.3-3.2,8.1-7.1,8.1-4.1,0-6.9-3.1-6.9-7.8,0-4.9,3-8.1,7.1-8.1S178.6,368.55,178.6,373.05Zm-11.9.3c0,3.3,1.8,6.2,4.9,6.2s4.9-2.9,4.9-6.4c0-3-1.6-6.2-4.9-6.2s-4.9,3.05-4.9,6.4Z"/><path class="cls-8" d="M194.3,373.05c0,5.3-3.2,8.1-7.1,8.1-4.1,0-6.9-3.1-6.9-7.8,0-4.9,3-8.1,7.1-8.1S194.3,368.55,194.3,373.05Zm-11.9.3c0,3.3,1.8,6.2,4.9,6.2s4.9-2.9,4.9-6.4c0-3-1.6-6.2-4.9-6.2s-4.9,3.05-4.9,6.4Z"/><path class="cls-8" d="M196.8,381V365.7H199l4.9,7.8c1.1,1.8,2,3.4,2.8,5h0c-.17-2.09-.23-4.2-.2-6.3v-6.4h1.9v15.3h-2l-4.9-7.8a58.22,58.22,0,0,1-2.9-5.1h-.1c.1,1.9.2,3.8.2,6.3v6.6h-1.9Z"/><path class="cls-8" d="M126.7,362.7h0l-2.1,1.1-.3-1.2,2.6-1.4h1.3v11.7h-1.5Z"/><path class="cls-8" d="M90.8,360.3v-1l1.2-1.2c3-2.8,4.3-4.4,4.4-6.1a2.1,2.1,0,0,0-1.87-2.3H94.1a3.88,3.88,0,0,0-2.5,1l-.5-1.1a5.13,5.13,0,0,1,3.3-1.2,3.29,3.29,0,0,1,3.59,3,1.86,1.86,0,0,1,0,.41c0,2.2-1.6,3.9-4,6.3l-.9.9h5.3v1.3Z"/><path class="cls-8" d="M63.6,340.1a5.41,5.41,0,0,0,2.6.7c2,0,2.7-1.3,2.6-2.3,0-1.6-1.5-2.3-3-2.3h-.9V335h.9c1.2,0,2.6-.6,2.6-2,0-.9-.6-1.8-2.1-1.8a4,4,0,0,0-2.3.8l-.4-1.2a5.21,5.21,0,0,1,3.1-.9c2.3,0,3.3,1.4,3.3,2.8a3,3,0,0,1-2.2,2.8h0a3.11,3.11,0,0,1,2.6,3c0,1.9-1.5,3.5-4.3,3.5a5.39,5.39,0,0,1-3-.8Z"/><path class="cls-8" d="M46.3,317.1v-1.7a.67.67,0,0,0-.65-.7H40.9v-1l5-7.2a.73.73,0,0,1,.6-.3h.6a.68.68,0,0,1,.7.66,0,0,0,0,1,0,0v5.8a.68.68,0,0,0,.66.7h.94v1.2h-.9a.69.69,0,0,0-.7.66V317a.67.67,0,0,1-.65.7h0C46.7,317.9,46.3,317.5,46.3,317.1Zm-.7-3.6a.67.67,0,0,0,.7-.66,0,0,0,0,0,0,0v-3.2a12.07,12.07,0,0,1,.1-1.8h-.1a11.65,11.65,0,0,1-1,1.7v.1l-2.8,4h3.1Z"/><path class="cls-8" d="M6.9,208.7a6.08,6.08,0,0,0-1.2.1A4.76,4.76,0,0,0,1.6,213h.1a3.67,3.67,0,0,1,2.8-1.4c2.1,0,3.5,1.5,3.5,3.8a4,4,0,0,1-3.89,4.1h0c-2.5,0-4.1-1.9-4.1-5a7.34,7.34,0,0,1,2-5.3,6.4,6.4,0,0,1,3.7-1.7,6.08,6.08,0,0,1,1.2-.1Zm-.5,6.7a2.4,2.4,0,0,0-2.08-2.68l-.32,0a2.74,2.74,0,0,0-2.3,1.4,1.53,1.53,0,0,0-.2.7c0,1.9.9,3.3,2.6,3.3C5.5,218.2,6.4,217.1,6.4,215.4Z"/><path class="cls-8" d="M27.7,101.5A3.31,3.31,0,0,1,30,98.4v-.1a2.93,2.93,0,0,1-1.9-2.6c0-1.9,1.6-3.1,3.6-3.1,2.3,0,3.4,1.4,3.4,2.9a2.87,2.87,0,0,1-1.9,2.7v.1a3.25,3.25,0,0,1,2.4,3c0,2-1.7,3.4-4,3.4S27.7,103.3,27.7,101.5Zm6.3,0c0-1.4-1-2.1-2.6-2.6a2.52,2.52,0,0,0-2.1,2.4,2.09,2.09,0,0,0,1.93,2.21,1.53,1.53,0,0,0,.37,0A2,2,0,0,0,34,101.94,1.6,1.6,0,0,0,34,101.5Zm-4.4-5.9c0,1.2.9,1.8,2.2,2.2a2.32,2.32,0,0,0,1.8-2.1,1.84,1.84,0,0,0-1.81-1.9H31.6a1.85,1.85,0,0,0-2,1.8Z"/><path class="cls-8" d="M55.7,66.7a7,7,0,0,0,1.3-.1,4.07,4.07,0,0,0,2.4-1.1,4.79,4.79,0,0,0,1.5-3.1h-.1a3.54,3.54,0,0,1-5,.51A3.59,3.59,0,0,1,54.5,60.1a4.07,4.07,0,0,1,3.9-4.2h.1c2.4,0,3.9,1.9,3.9,4.9a7.54,7.54,0,0,1-2,5.5A6,6,0,0,1,57,67.9a8.28,8.28,0,0,1-1.5.1V66.7Zm.6-6.8a2.27,2.27,0,0,0,2,2.49h.29a2.53,2.53,0,0,0,2.3-1.2c.1-.1.1-.3.1-.6,0-2-.7-3.5-2.4-3.5C57.2,57.1,56.3,58.3,56.3,59.9Z"/><path class="cls-8" d="M88,34.8h0l-2.1,1.1-.3-1.2,2.6-1.4h1.3V45H88Z"/><path class="cls-8" d="M101.6,39c0,4-1.5,6.2-4.1,6.2-2.3,0-3.8-2.1-3.9-6s1.7-6.1,4.1-6.1S101.6,35.3,101.6,39Zm-6.4.2c0,3,.9,4.8,2.4,4.8s2.4-1.9,2.4-4.9-.7-4.8-2.4-4.8C96.2,34.3,95.2,36,95.2,39.2Z"/><path class="cls-8" d="M120.3,22h0l-2.1,1.1-.3-1.2,2.6-1.4h1.3V32.2h-1.5Z"/><path class="cls-8" d="M129.6,22h0l-2.1,1.1-.3-1.2,2.6-1.4h1.3V32.2h-1.5Z"/></g></g></g><text class="cls-9" transform="translate(346.64 248.39)">7</text><text class="cls-10" transform="translate(230.2 368.54)">11</text><text class="cls-11" transform="translate(10.37 277.29)">5</text><text class="cls-9" transform="translate(6.31 158.94)">7</text></g></g></svg>