<svg xmlns="http://www.w3.org/2000/svg" viewBox="0 0 361.2 381.15"><defs><style>.cls-1{fill:#f26739;}.cls-2{fill:#99ca3d;}.cls-3{fill:#fdba2f;}.cls-4,.cls-7{fill:none;}.cls-5,.cls-7,.cls-8{isolation:isolate;font-family:ArialMT, Arial;}.cls-5,.cls-7{font-size:34px;}.cls-5{fill:#fff;}.cls-6{letter-spacing:-0.13em;}.cls-7{stroke:#fff;stroke-width:0.25px;}.cls-8{font-size:12px;}.cls-9{fill:#6f6f6f;}</style></defs><title>sunAsset 5</title><g id="Layer_2" data-name="Layer 2"><g id="Layer_1-2" data-name="Layer 1"><g id="Layer_1-3" data-name="Layer 1"><path class="cls-1" d="M112.3,341.5a151.35,151.35,0,0,0,20.6,8A158.4,158.4,0,0,0,331,244.9L179.6,198.2,28.3,151.4C4.8,227.4,40.3,307.7,112.3,341.5Z"/><path class="cls-2" d="M28.3,151.4l151.4,46.7,151.4,46.7c14.1-45.6,7.6-92.6-18.3-132.6-21.5-33.4-48.4-53.7-86.4-65.5C142.8,21,54.1,67.8,28.3,151.4Z"/><path class="cls-3" d="M179.7,198.2,43.1,279s53.2,101.7,176.6,72.4Z"/><rect class="cls-4" x="40.5" y="189.8" width="71.7" height="31.3"/><text class="cls-5" transform="translate(40.47 213.89)"><tspan class="cls-6">P</tspan><tspan x="18.29" y="0">.M.</tspan></text><text class="cls-7" transform="translate(40.47 213.89)"><tspan class="cls-6">P</tspan><tspan x="18.29" y="0">.M.</tspan></text><rect class="cls-4" x="253.3" y="189.8" width="79.6" height="31.3"/><text class="cls-5" transform="translate(253.24 213.89)">A.M.</text><text class="cls-7" transform="translate(253.24 213.89)">A.M.</text><text class="cls-8" transform="translate(349.66 176.79)"> </text></g><g id="Layer_2-2" data-name="Layer 2"><path class="cls-9" d="M233.6,25h0l-2.1,1.1-.3-1.2,2.4-1.3c.1-.1.2-.1.4-.1h1.2V34.4a.79.79,0,0,1-.8.8h0a.79.79,0,0,1-.8-.8V25Z"/><path class="cls-9" d="M147.7,9c-.1-2.2-.3-4.8-.2-6.8h-.1c-.5,1.8-1.2,3.8-2,6l-2.8,7.6h-1.5l-2.5-7.5c-.7-2.2-1.4-4.2-1.8-6.1h0c0,2-.2,4.6-.3,6.9l-.4,6.7h-1.9L135.3.1h2.6l2.7,7.6a50.86,50.86,0,0,1,1.6,5.3h.1c.4-1.6,1-3.3,1.7-5.3L146.8.1h2.6l1,15.7h-2Z"/><path class="cls-9" d="M155.2.2V15.9h-2V.2Z"/><path class="cls-9" d="M158.8.4a27.16,27.16,0,0,1,4.3-.3c2.9,0,5,.7,6.4,2a7.22,7.22,0,0,1,2.2,5.6,8.06,8.06,0,0,1-2.3,6.1c-1.5,1.5-3.9,2.3-6.9,2.3-1.4,0-2.7-.1-3.7-.2Zm2,13.9a12.79,12.79,0,0,0,2.1.1c4.3,0,6.7-2.4,6.7-6.7,0-3.7-2.1-6.1-6.4-6.1a14.36,14.36,0,0,0-2.4.2V14.3Z"/><path class="cls-9" d="M174.3,15.9V.2h2.2l5,8a33,33,0,0,1,2.8,5.1h0c-.2-2.1-.2-4-.2-6.5V.2H186V15.9h-2.1l-5-8A45.13,45.13,0,0,1,176,2.7h-.1c.1,2,.2,3.9.2,6.5v6.7Z"/><path class="cls-9" d="M191.7.2V15.9h-2V.2Z"/><path class="cls-9" d="M207.2,15.2a15.05,15.05,0,0,1-4.8.9,8.08,8.08,0,0,1-5.9-2.1,7.92,7.92,0,0,1-2.2-5.9c0-4.7,3.2-8.1,8.5-8.1a10.38,10.38,0,0,1,3.9.7l-.5,1.7a7.67,7.67,0,0,0-3.5-.7c-3.8,0-6.3,2.4-6.3,6.3s2.4,6.3,6.1,6.3a7.6,7.6,0,0,0,2.7-.4V9.2H202V7.7h5.2Z"/><path class="cls-9" d="M212.3.2V6.8h7.6V.2H222V15.9h-2.1V8.5h-7.6v7.4h-2V.2Z"/><path class="cls-9" d="M228.4,1.9h-4.8V.2h11.6V1.9h-4.7v14h-2.1Z"/><path class="cls-9" d="M270.6,51.3v-1l1.2-1.2c3-2.8,4.3-4.4,4.4-6.1a2.1,2.1,0,0,0-2.3-2.3,3.82,3.82,0,0,0-2.5,1l-.5-1.1a5.1,5.1,0,0,1,3.3-1.2,3.3,3.3,0,0,1,3.6,3.4c0,2.2-1.6,3.9-4,6.3l-.9.9h5.3v1.3Z"/><path class="cls-9" d="M307,78.1a5.4,5.4,0,0,0,2.6.7c2,0,2.7-1.3,2.6-2.3,0-1.6-1.5-2.3-3-2.3h-.9V73h.9c1.2,0,2.6-.6,2.6-2,0-.9-.6-1.8-2.1-1.8a4,4,0,0,0-2.3.8l-.4-1.2a6,6,0,0,1,3.1-.9c2.3,0,3.3,1.4,3.3,2.8a3,3,0,0,1-2.2,2.8h0a3.11,3.11,0,0,1,2.6,3c0,1.9-1.5,3.5-4.3,3.5a5.4,5.4,0,0,1-3-.8Z"/><path class="cls-9" d="M337.7,116.4v-3.2h-5.4v-1l5.2-7.5h1.7V112h1.6v1.2h-1.6v3.2Zm0-4.4v-3.9a10.87,10.87,0,0,1,.1-1.8h-.1a12.75,12.75,0,0,1-1,1.7l-2.9,4h3.9Z"/><path class="cls-9" d="M355.7,147h-4.5l-.5,3c.3,0,.5-.1,1-.1a5.14,5.14,0,0,1,2.5.6,3.32,3.32,0,0,1,1.7,3c0,2.3-1.8,4-4.4,4a6.09,6.09,0,0,1-2.9-.7l.4-1.2a5.07,5.07,0,0,0,2.5.6,2.61,2.61,0,0,0,2.8-2.5c0-1.5-1-2.6-3.4-2.6-.7,0-1.2.1-1.6.1l.8-5.6h5.6V147Z"/><path class="cls-9" d="M360.1,192.7a5.74,5.74,0,0,0-1.2.1,4.76,4.76,0,0,0-4.1,4.2h.1a3.64,3.64,0,0,1,2.8-1.4c2.1,0,3.5,1.5,3.5,3.8a4,4,0,0,1-3.9,4.1c-2.5,0-4.1-1.9-4.1-5a7.32,7.32,0,0,1,2-5.3,6.35,6.35,0,0,1,3.7-1.7,5.74,5.74,0,0,1,1.2-.1Zm-.5,6.7a2.4,2.4,0,0,0-2.4-2.7,2.74,2.74,0,0,0-2.3,1.4,1.45,1.45,0,0,0-.2.7c0,1.9.9,3.3,2.6,3.3C358.7,202.2,359.6,201.1,359.6,199.4Z"/><path class="cls-3" d="M360.6,244.3v1.5l-7.4,15.5h-2.4l7.4-15v-.1h-8.3v-1.9Z"/><path class="cls-9" d="M331.3,285.4a3.3,3.3,0,0,1,2.3-3.1v-.1a2.91,2.91,0,0,1-1.9-2.6c0-1.9,1.6-3.1,3.6-3.1,2.3,0,3.4,1.4,3.4,2.9a2.87,2.87,0,0,1-1.9,2.7v.1a3.25,3.25,0,0,1,2.4,3c0,2-1.7,3.4-4,3.4S331.3,287.2,331.3,285.4Zm6.3,0c0-1.4-1-2.1-2.6-2.6a2.51,2.51,0,0,0-2.1,2.4,2.07,2.07,0,0,0,2.3,2.2A2,2,0,0,0,337.6,285.4Zm-4.3-5.9c0,1.2.9,1.8,2.2,2.2a2.33,2.33,0,0,0,1.8-2.1,1.86,1.86,0,0,0-2-1.9A1.74,1.74,0,0,0,333.3,279.5Z"/><path class="cls-9" d="M307.2,321.6a7.17,7.17,0,0,0,1.3-.1,4.12,4.12,0,0,0,2.4-1.1,4.81,4.81,0,0,0,1.5-3.1h.1a3.55,3.55,0,0,1-6.3-2.3,4.05,4.05,0,0,1,4-4.2c2.4,0,3.9,1.9,3.9,4.9a7.55,7.55,0,0,1-2,5.5,6,6,0,0,1-3.4,1.6,8.64,8.64,0,0,1-1.5.1Zm.6-6.7a2.26,2.26,0,0,0,2.3,2.5,2.54,2.54,0,0,0,2.3-1.2c.1-.1.1-.3.1-.6,0-2-.7-3.5-2.4-3.5C308.8,312,307.8,313.2,307.8,314.9Z"/><path class="cls-9" d="M270.7,340.7h0l-2.1,1.1-.3-1.2,2.6-1.4h1.3v11.7h-1.5Z"/><path class="cls-9" d="M284.3,344.9c0,4-1.5,6.2-4.1,6.2-2.3,0-3.8-2.1-3.9-6s1.7-6.1,4.1-6.1S284.3,341.2,284.3,344.9Zm-6.4.2c0,3,.9,4.8,2.4,4.8s2.4-1.9,2.4-4.9-.7-4.8-2.4-4.8C278.9,340.2,277.9,341.9,277.9,345.1Z"/><path class="cls-3" d="M240.1,366h0l-3,1.6-.4-1.7,3.4-1.8a.9.9,0,0,1,.5-.1h1.7v15.8a1.11,1.11,0,0,1-1.1,1.1h0a1.11,1.11,0,0,1-1.1-1.1V366Z"/><path class="cls-9" d="M150.8,381v-15.3H153l4.9,7.8c1.1,1.8,2,3.4,2.8,5h0a62.2,62.2,0,0,1-.2-6.3v-6.4h1.9v15.3h-2l-4.9-7.8a54.27,54.27,0,0,1-2.9-5.1h-.1c.1,1.9.2,3.8.2,6.3v6.6h-1.9Z"/><path class="cls-9" d="M178.9,373.05c0,5.3-3.2,8.1-7.1,8.1-4.1,0-6.9-3.1-6.9-7.8,0-4.9,3-8.1,7.1-8.1S178.9,368.55,178.9,373.05Zm-11.9.3c0,3.3,1.8,6.2,4.9,6.2s4.9-2.9,4.9-6.4c0-3-1.6-6.2-4.9-6.2S167,370,167,373.35Z"/><path class="cls-9" d="M194.6,373.05c0,5.3-3.2,8.1-7.1,8.1-4.1,0-6.9-3.1-6.9-7.8,0-4.9,3-8.1,7.1-8.1S194.6,368.55,194.6,373.05Zm-11.9.3c0,3.3,1.8,6.2,4.9,6.2s4.9-2.9,4.9-6.4c0-3-1.6-6.2-4.9-6.2S182.7,370,182.7,373.35Z"/><path class="cls-9" d="M197.1,381v-15.3h2.2l4.9,7.8c1.1,1.8,2,3.4,2.8,5h0a62.2,62.2,0,0,1-.2-6.3v-6.4h1.9v15.3h-2l-4.9-7.8a54.27,54.27,0,0,1-2.9-5.1h-.1c.1,1.9.2,3.8.2,6.3v6.6h-1.9Z"/><path class="cls-9" d="M127,362.7h0l-2.1,1.1-.3-1.2,2.6-1.4h1.3v11.7H127Z"/><path class="cls-9" d="M91.1,360.3v-1l1.2-1.2c3-2.8,4.3-4.4,4.4-6.1a2.1,2.1,0,0,0-2.3-2.3,3.82,3.82,0,0,0-2.5,1l-.5-1.1a5.1,5.1,0,0,1,3.3-1.2,3.3,3.3,0,0,1,3.6,3.4c0,2.2-1.6,3.9-4,6.3l-.9.9h5.3v1.3Z"/><path class="cls-9" d="M63.9,340.1a5.4,5.4,0,0,0,2.6.7c2,0,2.7-1.3,2.6-2.3,0-1.6-1.5-2.3-3-2.3h-.9V335h.9c1.2,0,2.6-.6,2.6-2,0-.9-.6-1.8-2.1-1.8a4,4,0,0,0-2.3.8l-.4-1.2a5.19,5.19,0,0,1,3.1-.9c2.3,0,3.3,1.4,3.3,2.8a3,3,0,0,1-2.2,2.8h0a3.11,3.11,0,0,1,2.6,3c0,1.9-1.5,3.5-4.3,3.5a5.4,5.4,0,0,1-3-.8Z"/><path class="cls-9" d="M46.6,317.1v-1.7a.68.68,0,0,0-.7-.7H41.2v-1l5-7.2a.71.71,0,0,1,.6-.3h.6a.68.68,0,0,1,.7.7v5.8a.68.68,0,0,0,.7.7h.9v1.2h-.9a.68.68,0,0,0-.7.7V317a.68.68,0,0,1-.7.7h0C47,317.9,46.6,317.5,46.6,317.1Zm-.7-3.6a.68.68,0,0,0,.7-.7v-3.2a10.87,10.87,0,0,1,.1-1.8h-.1a12.75,12.75,0,0,1-1,1.7v.1l-2.8,4h3.1Z"/><path class="cls-3" d="M26.7,285.4H20l-.7,4.5a5.72,5.72,0,0,1,1.4-.1,7,7,0,0,1,3.8,1,5,5,0,0,1,2.5,4.5c0,3.4-2.7,6-6.6,6a8.06,8.06,0,0,1-4.4-1.1l.6-1.8a8.3,8.3,0,0,0,3.8,1,3.9,3.9,0,0,0,4.2-3.8c0-2.3-1.5-3.9-5.1-3.9a14.36,14.36,0,0,0-2.4.2l1.1-8.5h8.4v2Z"/><path class="cls-9" d="M7.2,208.7a5.74,5.74,0,0,0-1.2.1A4.76,4.76,0,0,0,1.9,213H2a3.64,3.64,0,0,1,2.8-1.4c2.1,0,3.5,1.5,3.5,3.8a4,4,0,0,1-3.9,4.1c-2.5,0-4.1-1.9-4.1-5a7.32,7.32,0,0,1,2-5.3A6.35,6.35,0,0,1,6,207.5a5.74,5.74,0,0,1,1.2-.1Zm-.5,6.7a2.4,2.4,0,0,0-2.4-2.7A2.74,2.74,0,0,0,2,214.1a1.45,1.45,0,0,0-.2.7c0,1.9.9,3.3,2.6,3.3C5.8,218.2,6.7,217.1,6.7,215.4Z"/><path class="cls-3" d="M11,137.4v.7a3.29,3.29,0,0,1-.4,1.7L4.5,152.7A3.73,3.73,0,0,1,1,154.9H1l7.6-15.5v-.1H0v-2H11Z"/><path class="cls-9" d="M28,101.5a3.3,3.3,0,0,1,2.3-3.1v-.1a2.91,2.91,0,0,1-1.9-2.6c0-1.9,1.6-3.1,3.6-3.1,2.3,0,3.4,1.4,3.4,2.9a2.87,2.87,0,0,1-1.9,2.7v.1a3.25,3.25,0,0,1,2.4,3c0,2-1.7,3.4-4,3.4S28,103.3,28,101.5Zm6.3,0c0-1.4-1-2.1-2.6-2.6a2.51,2.51,0,0,0-2.1,2.4,2.07,2.07,0,0,0,2.3,2.2A2,2,0,0,0,34.3,101.5Zm-4.4-5.9c0,1.2.9,1.8,2.2,2.2a2.33,2.33,0,0,0,1.8-2.1,1.86,1.86,0,0,0-2-1.9A1.79,1.79,0,0,0,29.9,95.6Z"/><path class="cls-9" d="M56,66.7a7.17,7.17,0,0,0,1.3-.1,4.12,4.12,0,0,0,2.4-1.1,4.81,4.81,0,0,0,1.5-3.1h-.1a3.55,3.55,0,0,1-6.3-2.3,4.05,4.05,0,0,1,4-4.2c2.4,0,3.9,1.9,3.9,4.9a7.55,7.55,0,0,1-2,5.5,6,6,0,0,1-3.4,1.6,8.64,8.64,0,0,1-1.5.1V66.7Zm.6-6.8a2.26,2.26,0,0,0,2.3,2.5,2.54,2.54,0,0,0,2.3-1.2c.1-.1.1-.3.1-.6,0-2-.7-3.5-2.4-3.5C57.5,57.1,56.6,58.3,56.6,59.9Z"/><path class="cls-9" d="M88.3,34.8h0l-2.1,1.1-.3-1.2,2.6-1.4h1.3V45H88.3Z"/><path class="cls-9" d="M101.9,39c0,4-1.5,6.2-4.1,6.2-2.3,0-3.8-2.1-3.9-6s1.7-6.1,4.1-6.1S101.9,35.3,101.9,39Zm-6.4.2c0,3,.9,4.8,2.4,4.8s2.4-1.9,2.4-4.9-.7-4.8-2.4-4.8C96.5,34.3,95.5,36,95.5,39.2Z"/><path class="cls-9" d="M120.6,22h0l-2.1,1.1-.3-1.2,2.6-1.4h1.3V32.2h-1.5Z"/><path class="cls-9" d="M129.9,22h0l-2.1,1.1-.3-1.2,2.6-1.4h1.3V32.2h-1.5Z"/></g><path class="cls-3" d="M231.83,366h0l-3,1.6-.4-1.7,3.4-1.8a.9.9,0,0,1,.5-.1H234v15.8a1.11,1.11,0,0,1-1.1,1.1h0a1.11,1.11,0,0,1-1.1-1.1V366Z"/></g></g></svg>