<svg xmlns="http://www.w3.org/2000/svg" viewBox="0 0 134.8 35.4"><defs><style>.cls-1{fill:none;stroke:#6f6f6f;stroke-linecap:round;stroke-miterlimit:10;stroke-width:2.28px;}.cls-2{fill:#6f6f6f;}.cls-3{fill:#807f80;}</style></defs><title>sunAsset 3</title><g id="Layer_2" data-name="Layer 2"><g id="Layer_1-2" data-name="Layer 1"><g id="Layer_1-3" data-name="Layer 1"><circle class="cls-1" cx="17.7" cy="17.7" r="7.52"/><line class="cls-1" x1="17.7" y1="10.18" x2="17.7" y2="1.14"/><line class="cls-1" x1="17.7" y1="4.71" x2="21.04" y2="1.9"/><line class="cls-1" x1="17.7" y1="4.71" x2="14.36" y2="1.9"/><line class="cls-1" x1="12.38" y1="12.38" x2="5.93" y2="6"/><line class="cls-1" x1="8.51" y1="8.51" x2="8.89" y2="4.18"/><line class="cls-1" x1="8.51" y1="8.51" x2="4.1" y2="8.89"/><line class="cls-1" x1="10.1" y1="17.7" x2="1.14" y2="17.7"/><line class="cls-1" x1="4.63" y1="17.7" x2="1.82" y2="14.36"/><line class="cls-1" x1="4.63" y1="17.7" x2="1.82" y2="21.04"/><line class="cls-1" x1="12.38" y1="23.02" x2="5.93" y2="29.47"/><line class="cls-1" x1="8.51" y1="26.89" x2="4.1" y2="26.51"/><line class="cls-1" x1="8.51" y1="26.89" x2="8.89" y2="31.3"/><line class="cls-1" x1="17.7" y1="25.3" x2="17.7" y2="34.26"/><line class="cls-1" x1="17.7" y1="30.77" x2="14.36" y2="33.58"/><line class="cls-1" x1="17.7" y1="30.77" x2="21.04" y2="33.58"/><line class="cls-1" x1="23.02" y1="23.02" x2="29.4" y2="29.47"/><line class="cls-1" x1="26.89" y1="26.89" x2="26.51" y2="31.3"/><line class="cls-1" x1="26.89" y1="26.89" x2="31.22" y2="26.51"/><line class="cls-1" x1="25.22" y1="17.7" x2="34.26" y2="17.7"/><line class="cls-1" x1="30.69" y1="17.7" x2="33.5" y2="21.04"/><line class="cls-1" x1="30.69" y1="17.7" x2="33.5" y2="14.36"/><line class="cls-1" x1="23.02" y1="12.38" x2="29.4" y2="6"/><line class="cls-1" x1="26.89" y1="8.51" x2="31.22" y2="8.89"/><line class="cls-1" x1="26.89" y1="8.51" x2="26.51" y2="4.18"/><path class="cls-2" d="M50.4,12.9l-1.6-6-1.6,6a4.05,4.05,0,0,1-.3,1,1,1,0,0,1-.4.5.84.84,0,0,1-.7.2c-.3,0-.5,0-.6-.1a.78.78,0,0,1-.4-.4,1.42,1.42,0,0,1-.2-.6c-.1-.2-.1-.5-.2-.7L42.7,6.1a5.07,5.07,0,0,1-.2-.9.91.91,0,0,1,.3-.7.91.91,0,0,1,.7-.3c.4,0,.6.1.7.4s.2.6.3,1l1.3,5.9L47.3,6c.1-.4.2-.7.3-1a1.27,1.27,0,0,1,.4-.6,1.08,1.08,0,0,1,.8-.2,1.88,1.88,0,0,1,.8.2,1.76,1.76,0,0,1,.4.5,4.05,4.05,0,0,1,.3,1l1.5,5.5,1.3-5.9a6.37,6.37,0,0,1,.2-.7c.1-.2.2-.3.3-.5s.3-.2.6-.2a.91.91,0,0,1,.7.3.91.91,0,0,1,.3.7A5.07,5.07,0,0,1,55,6l-1.7,6.7a4.05,4.05,0,0,1-.3,1,2.09,2.09,0,0,1-.4.6c-.2.2-.4.2-.8.2a1.17,1.17,0,0,1-.7-.2,2.18,2.18,0,0,1-.4-.5A3,3,0,0,1,50.4,12.9Z"/><path class="cls-2" d="M56.5,13.4V5.5a1.22,1.22,0,0,1,.3-.9.91.91,0,0,1,.7-.3.78.78,0,0,1,.7.3,1.22,1.22,0,0,1,.3.9v7.9a1.22,1.22,0,0,1-.3.9,1,1,0,0,1-1.4,0A1.22,1.22,0,0,1,56.5,13.4Z"/><path class="cls-2" d="M63.4,5.5l3.9,5.9v-6a2,2,0,0,1,.2-.9,1,1,0,0,1,1.4,0,1.22,1.22,0,0,1,.3.9v7.9c0,.9-.4,1.3-1.1,1.3a.9.9,0,0,1-.5-.1c-.1-.1-.3-.1-.4-.2l-.4-.4c-.1-.2-.2-.3-.3-.5L62.7,7.6v5.9a1.22,1.22,0,0,1-.3.9,1,1,0,0,1-1.4,0,1.22,1.22,0,0,1-.3-.9V5.8a2,2,0,0,1,.1-.8,1,1,0,0,1,.4-.5,1.42,1.42,0,0,1,.6-.2.9.9,0,0,1,.5.1.77.77,0,0,1,.3.2,1.38,1.38,0,0,1,.3.4C63,5.2,63.3,5.3,63.4,5.5Z"/><path class="cls-2" d="M77.9,6.1H75.7v7.3a1.22,1.22,0,0,1-.3.9,1,1,0,0,1-1.4,0,1.22,1.22,0,0,1-.3-.9V6.1H71.5a1.88,1.88,0,0,1-.8-.2.86.86,0,0,1-.3-.6.6.6,0,0,1,.3-.6,1.55,1.55,0,0,1,.8-.2H78a1.55,1.55,0,0,1,.8.2.75.75,0,0,1,0,1.2A2,2,0,0,1,77.9,6.1Z"/><path class="cls-2" d="M86.8,6H82.2V8.5h4.2a1.45,1.45,0,0,1,.7.2c.2.1.2.3.2.6a1.07,1.07,0,0,1-.2.6,1.45,1.45,0,0,1-.7.2H82.2V13h4.7a1.17,1.17,0,0,1,.7.2c.2.1.2.3.2.6a1.42,1.42,0,0,1-.2.6,1.45,1.45,0,0,1-.7.2H81.4a1.49,1.49,0,0,1-1-.3,1.33,1.33,0,0,1-.3-1V5.8a1.48,1.48,0,0,1,.1-.7.78.78,0,0,1,.4-.4,1.48,1.48,0,0,1,.7-.1h5.4a1.17,1.17,0,0,1,.7.2c.2.1.2.3.2.6a1.42,1.42,0,0,1-.2.6C87.4,5.9,87.1,6,86.8,6Z"/><path class="cls-2" d="M92.3,10.1h-.7v3.2a1.22,1.22,0,0,1-.3.9.91.91,0,0,1-.7.3,1.14,1.14,0,0,1-.8-.3,1.22,1.22,0,0,1-.3-.9V5.6a1.49,1.49,0,0,1,.3-1,1.33,1.33,0,0,1,1-.3h3.3a4.48,4.48,0,0,1,1.2.1,2.92,2.92,0,0,1,.9.2,1.56,1.56,0,0,1,.8.6,7,7,0,0,1,.6.9,3.55,3.55,0,0,1,.2,1,2.79,2.79,0,0,1-.6,1.8,3.47,3.47,0,0,1-1.9,1,3.92,3.92,0,0,1,1,.8,12.49,12.49,0,0,1,.9,1.2,4.49,4.49,0,0,1,.8,1.8.6.6,0,0,1-.1.4l-.3.3a.75.75,0,0,1-.5.1,1.42,1.42,0,0,1-.6-.2.78.78,0,0,1-.4-.4c-.1-.2-.3-.4-.5-.7l-.8-1.4a6.29,6.29,0,0,0-.8-1.1,3,3,0,0,0-.7-.5A3.08,3.08,0,0,0,92.3,10.1Zm1.1-4.2H91.5V8.7h1.8a4.12,4.12,0,0,0,1.2-.1,2,2,0,0,0,.8-.4,1.14,1.14,0,0,0,.3-.8,1.45,1.45,0,0,0-.2-.7,1,1,0,0,0-.6-.5A2.21,2.21,0,0,0,93.4,5.9Z"/><path class="cls-3" d="M45.9,22.3l3.9,5.9v-6a2,2,0,0,1,.2-.9,1,1,0,0,1,1.4,0,1.22,1.22,0,0,1,.3.9v7.9c0,.9-.4,1.3-1.1,1.3a.9.9,0,0,1-.5-.1c-.1-.1-.3-.1-.4-.2l-.4-.4c-.1-.2-.2-.3-.3-.5l-3.8-5.8v5.9a1.22,1.22,0,0,1-.3.9,1,1,0,0,1-1.4,0,1.22,1.22,0,0,1-.3-.9V22.6a2,2,0,0,1,.1-.8,1,1,0,0,1,.4-.5,1.42,1.42,0,0,1,.6-.2.9.9,0,0,1,.5.1.77.77,0,0,1,.3.2,1.38,1.38,0,0,1,.3.4C45.5,22,45.8,22.1,45.9,22.3Z"/><path class="cls-3" d="M60.8,27.6a3.34,3.34,0,0,1-.3,1.5,3.17,3.17,0,0,1-.8,1.2,5,5,0,0,1-1.2.8,4,4,0,0,1-1.5.3,3.34,3.34,0,0,1-1.5-.3,4.18,4.18,0,0,1-1.2-.8,3.6,3.6,0,0,1-.8-1.2,4,4,0,0,1-.3-1.5,4.15,4.15,0,0,1,.3-1.6,3.46,3.46,0,0,1,.7-1.2,3.6,3.6,0,0,1,1.2-.8,4,4,0,0,1,1.5-.3,3.34,3.34,0,0,1,1.5.3,3.17,3.17,0,0,1,1.2.8,2.92,2.92,0,0,1,.7,1.2C60.4,26.5,60.8,27,60.8,27.6Zm-1.9,0a3,3,0,0,0-.5-1.8,1.89,1.89,0,0,0-2.4-.3,1.56,1.56,0,0,0-.6.8,4.44,4.44,0,0,0-.2,1.3,5.07,5.07,0,0,0,.2,1.3A1.63,1.63,0,0,0,57,30a1.82,1.82,0,0,0,1.4-.6A3.2,3.2,0,0,0,58.9,27.6Z"/><path class="cls-3" d="M63.4,25l1.5,4.2,1.6-4.4a2.93,2.93,0,0,1,.4-.8.85.85,0,0,1,.6-.2,1.42,1.42,0,0,1,.6.2c.2.1.2.3.2.6v.3c0,.1-.1.2-.1.3s-.1.2-.1.3l-1.8,4.4c-.1.1-.1.3-.2.5a2.19,2.19,0,0,1-.3.5,1.38,1.38,0,0,1-.4.3.9.9,0,0,1-.5.1.85.85,0,0,1-.6-.2.54.54,0,0,1-.3-.4,4.13,4.13,0,0,1-.4-.9l-1.8-4.4c0-.1-.1-.2-.1-.3s-.1-.2-.1-.3v-.3a.6.6,0,0,1,.1-.4l.3-.3a.78.78,0,0,1,1,.2C63.1,24.2,63.2,24.6,63.4,25Z"/><path class="cls-3" d="M76.1,30.3V24.1a5.43,5.43,0,0,1-2.3,1.3.76.76,0,0,1-.5-.2c-.1-.2-.2-.3-.2-.5a.76.76,0,0,1,.2-.5,1.91,1.91,0,0,1,.8-.4,4.89,4.89,0,0,0,1.3-.8,9,9,0,0,0,.9-1c.3-.4.4-.6.5-.7s.2-.1.4-.1a.86.86,0,0,1,.6.3c.2.2.2.4.2.8v7.8c0,.9-.3,1.4-.9,1.4a.91.91,0,0,1-.7-.3A1.22,1.22,0,0,1,76.1,30.3Z"/><path class="cls-3" d="M87.4,28.4H85.2a1.17,1.17,0,0,1-.7-.2.86.86,0,0,1-.3-.6,1.42,1.42,0,0,1,.2-.6c.2-.2.4-.2.8-.2h2.2a1.88,1.88,0,0,1,.8.2.73.73,0,0,1,.2.6,1.42,1.42,0,0,1-.2.6A1.55,1.55,0,0,1,87.4,28.4Z"/><path class="cls-3" d="M99.7,30.1l-.5-1.3H95.1l-.5,1.3a3,3,0,0,1-.5,1,.6.6,0,0,1-.6.3.91.91,0,0,1-.7-.3.86.86,0,0,1-.3-.6.6.6,0,0,1,.1-.4c.1-.1.1-.3.2-.6L95.4,23a4.88,4.88,0,0,0,.3-.7,4.88,4.88,0,0,1,.3-.7,1,1,0,0,1,.5-.4,1.33,1.33,0,0,1,1.4,0,1.76,1.76,0,0,1,.5.4,1.33,1.33,0,0,1,.3.5,6.89,6.89,0,0,1,.3.8l2.6,6.5a3,3,0,0,1,.3,1.1.86.86,0,0,1-.3.6.91.91,0,0,1-.7.3c-.2,0-.3,0-.4-.1s-.2-.1-.3-.2a.59.59,0,0,1-.2-.5C99.8,30.4,99.7,30.3,99.7,30.1Zm-4-2.8h3l-1.5-4.1Z"/><path class="cls-3" d="M104.9,24.9v.2a5,5,0,0,1,1.1-1,2.77,2.77,0,0,1,1.3-.3,2.93,2.93,0,0,1,1.6.4,2.37,2.37,0,0,1,1.1,1.3,5.92,5.92,0,0,1,.4,2,7.77,7.77,0,0,1-.2,1.6,3.46,3.46,0,0,1-.7,1.2,3.92,3.92,0,0,1-1,.8,2.66,2.66,0,0,1-1.2.3,2.5,2.5,0,0,1-1.3-.3,4.06,4.06,0,0,1-1-.9V33q0,1.2-.9,1.2c-.4,0-.6-.1-.7-.3a2,2,0,0,1-.2-.9V24.9a1.55,1.55,0,0,1,.2-.8.86.86,0,0,1,.6-.3.6.6,0,0,1,.6.3A1,1,0,0,1,104.9,24.9Zm3.7,2.7a5.07,5.07,0,0,0-.2-1.3,2.76,2.76,0,0,0-.6-.8,1.61,1.61,0,0,0-.9-.3,1.76,1.76,0,0,0-1.3.6,2.43,2.43,0,0,0-.5,1.8,2.86,2.86,0,0,0,.5,1.7,1.76,1.76,0,0,0,1.3.6,1.61,1.61,0,0,0,.9-.3,1.56,1.56,0,0,0,.6-.8A3.73,3.73,0,0,0,108.6,27.6Z"/><path class="cls-3" d="M113.8,28.7v1.6a1.22,1.22,0,0,1-.3.9,1,1,0,0,1-1.4,0,1.14,1.14,0,0,1-.3-.8V25.1c0-.8.3-1.3.9-1.3a.91.91,0,0,1,.7.3c.2.2.2.5.2.9a3.51,3.51,0,0,1,.7-.9,1.22,1.22,0,0,1,.9-.3,2,2,0,0,1,1.1.3c.3.2.6.5.6.8a1.42,1.42,0,0,1-.2.6c-.2.1-.3.2-.5.2a1.34,1.34,0,0,1-.5-.1,2,2,0,0,0-.7-.1,1.45,1.45,0,0,0-.7.2c-.2.1-.3.4-.4.6a2.51,2.51,0,0,0-.2,1A5.72,5.72,0,0,1,113.8,28.7Z"/><path class="cls-3" d="M124.5,25.2a1.5,1.5,0,0,0,1.1-.4,1.43,1.43,0,0,0,.5-1.1,1,1,0,0,0-.4-.9,1.16,1.16,0,0,0-1-.4,1.48,1.48,0,0,0-.7.1,1.38,1.38,0,0,0-.4.3,2.19,2.19,0,0,0-.3.5l-.3.6a.22.22,0,0,1-.2.2c-.1,0-.3.1-.4.1s-.3-.1-.5-.2-.2-.3-.2-.6a1.85,1.85,0,0,1,.2-.7c.1-.3.4-.5.6-.7a4.37,4.37,0,0,1,1-.6,5.9,5.9,0,0,1,1.4-.2,5,5,0,0,1,1.2.2,3.13,3.13,0,0,1,1,.5,1.56,1.56,0,0,1,.6.8,3,3,0,0,1,.2,1,2.38,2.38,0,0,1-.3,1.2,7.3,7.3,0,0,1-.9,1,2.18,2.18,0,0,1,.9.7c.2.3.4.5.6.8a3,3,0,0,1,.2,1,5,5,0,0,1-.2,1.2,2.29,2.29,0,0,1-.7,1,3.46,3.46,0,0,1-1.2.7,3.34,3.34,0,0,1-1.5.3,4,4,0,0,1-1.5-.3,3,3,0,0,1-1.1-.7,2.36,2.36,0,0,1-.6-.9,3.09,3.09,0,0,1-.2-.8.6.6,0,0,1,.3-.6.73.73,0,0,1,.6-.2.6.6,0,0,1,.4.1c.1.1.2.2.2.3a3.69,3.69,0,0,0,.8,1.4,1.61,1.61,0,0,0,1.1.5,1.88,1.88,0,0,0,.8-.2.9.9,0,0,0,.6-.6,2.93,2.93,0,0,0,.3-1,1.84,1.84,0,0,0-.4-1.3,1.66,1.66,0,0,0-1.2-.5h-.8a1.07,1.07,0,0,1-.6-.2.72.72,0,0,1,0-1,1.45,1.45,0,0,1,.7-.2h.3v-.2Z"/><path class="cls-3" d="M132.9,30.3V24.1a5.43,5.43,0,0,1-2.3,1.3.76.76,0,0,1-.5-.2c-.1-.2-.2-.3-.2-.5a.76.76,0,0,1,.2-.5,1.91,1.91,0,0,1,.8-.4,4.89,4.89,0,0,0,1.3-.8,9,9,0,0,0,.9-1c.3-.4.4-.6.5-.7s.2-.1.4-.1a.86.86,0,0,1,.6.3c.2.2.2.4.2.8v7.8c0,.9-.3,1.4-.9,1.4a.91.91,0,0,1-.7-.3A1.22,1.22,0,0,1,132.9,30.3Z"/></g></g></g></svg>